<svg width="23" height="20" viewBox="0 0 23 20" fill="none" xmlns="http://www.w3.org/2000/svg">
<path d="M0 12.6667V10.6667H9.33333V12.6667H0ZM0 7.33333V5.33333H14.6667V7.33333H0ZM0 2V0H14.6667V2H0ZM11.4873 20V16.477L18.7257 9.27167C18.8914 9.10589 19.0704 8.98922 19.2627 8.92167C19.4549 8.85433 19.6471 8.82067 19.8393 8.82067C20.0489 8.82067 20.2517 8.85989 20.4477 8.93833C20.6437 9.017 20.8218 9.135 20.982 9.29233L22.2153 10.5383C22.3589 10.7043 22.47 10.8839 22.5487 11.077C22.6273 11.2701 22.6667 11.4632 22.6667 11.6563C22.6667 11.8494 22.6308 12.046 22.559 12.246C22.4872 12.446 22.3727 12.6289 22.2153 12.7947L15.0103 20H11.4873ZM13.077 18.4103H14.3437L18.6717 14.0613L18.059 13.428L17.4383 12.8027L13.077 17.1437V18.4103ZM18.059 13.428L17.4383 12.8027L18.6717 14.0613L18.059 13.428Z" fill="#9A7ED9"/>
</svg>
