<svg width="424" height="382" viewBox="0 0 424 382" fill="none" xmlns="http://www.w3.org/2000/svg">
<path d="M246.204 68.0501C244.025 63.1332 248.139 61.3373 251.121 53.5087C249.717 50.8578 249.172 47.8358 249.563 44.8616C249.953 41.8874 251.26 39.1085 253.3 36.9099C253.3 36.9099 253.178 20.5726 266.918 19.0906C266.918 19.0906 271.66 6.11843 290.247 21.7583C308.833 37.3981 300.098 45.8195 300.098 45.8195C300.098 45.8195 308.711 53.8923 303.672 59.7681C303.672 59.7681 311.013 70.3865 305.503 73.6121C299.993 76.8377 296.07 70.1249 296.07 70.1249C296.07 70.1249 293.786 80.133 278.635 71.4152C278.635 71.4152 256.491 81.9986 259.943 70.1249C259.891 70.1598 250.389 77.4479 246.204 68.0501Z" fill="#263238"/>
<path d="M216.511 71.4501V67.0562C216.493 65.454 216.054 63.8846 215.238 62.5055L213.773 59.8902C213.274 59.0656 212.503 58.4406 211.593 58.1224C210.683 57.8042 209.691 57.8128 208.787 58.1466L205.962 59.1753C205.445 59.3597 204.97 59.6456 204.565 60.0163C204.161 60.3869 203.834 60.8349 203.605 61.3337C203.376 61.8324 203.249 62.372 203.232 62.9206C203.214 63.4692 203.307 64.0158 203.504 64.5281L204.41 66.9168C204.41 66.9168 206.154 73.891 210.548 77.3782L212.012 76.7331C213.12 76.2609 214.103 75.5379 214.883 74.6211C215.664 73.7043 216.221 72.6188 216.511 71.4501Z" fill="#FFC3BD"/>
<path d="M262.053 76.7679C260.334 75.4264 258.154 74.8217 255.99 75.0865C253.825 75.3513 251.855 76.4639 250.51 78.1802L250.022 78.7905L249.046 80.0459L247.878 81.4756C247.058 82.4171 246.221 83.3587 245.367 84.2479C243.684 85.9922 241.871 87.6067 239.944 89.0776C238.152 90.4447 236.217 91.6139 234.173 92.5647C233.217 92.9771 232.232 93.3209 231.227 93.5934C230.746 93.7369 230.257 93.8476 229.762 93.9247H229.5C228.96 93.3424 228.459 92.725 228.001 92.0765C226.45 89.9233 225.035 87.6755 223.764 85.3463C221.027 80.5341 218.411 75.3033 215.779 70.2295V70.1249C215.324 69.2574 214.575 68.5797 213.667 68.2126C212.759 67.8456 211.75 67.8131 210.82 68.121C209.89 68.4289 209.1 69.0571 208.59 69.8936C208.08 70.73 207.884 71.7204 208.037 72.688C209.026 78.7132 210.519 84.6447 212.501 90.4201C213.543 93.4671 214.807 96.4333 216.284 99.2949C217.162 100.969 218.196 102.557 219.37 104.037C220.171 105.041 221.096 105.937 222.125 106.705C223.833 108.03 225.897 108.813 228.053 108.954H229.797C230.279 108.981 230.762 108.981 231.244 108.954C232.208 108.908 233.168 108.809 234.121 108.658C235.995 108.382 237.839 107.932 239.631 107.315C243.06 106.158 246.315 104.539 249.307 102.503C252.161 100.591 254.813 98.3941 257.223 95.9472C258.409 94.7442 259.542 93.5063 260.623 92.216C261.146 91.5535 261.687 90.9083 262.192 90.2109L262.96 89.1473L263.797 87.9268C264.972 86.1914 265.445 84.0749 265.122 82.0041C264.798 79.9332 263.702 78.0621 262.053 76.7679Z" fill="#FFC3BD"/>
<path d="M264.86 79.7669C259.141 66.0798 245.471 78.7905 238.933 86.0961C242.942 91.648 245.897 97.8889 247.651 104.508C255.619 99.7308 269.097 89.8622 264.86 79.7669Z" fill="#9A7ED9"/>
<path opacity="0.4" d="M264.86 79.7669C259.141 66.0798 245.471 78.7905 238.933 86.0961C242.942 91.648 245.897 97.8889 247.651 104.508C255.619 99.7308 269.097 89.8622 264.86 79.7669Z" fill="white"/>
<path d="M247.302 140.53C247.302 140.53 248.941 193.587 256.665 233.567C258.409 267.393 275.844 348.643 275.844 348.643C280.238 349.497 281.581 349.637 285.207 348.521C285.207 348.521 292.321 285.648 282.487 234.369C283.446 225.163 283.481 212.906 285.974 201.555C288.084 191.879 294.117 180.127 294.483 174.216C296.314 144.209 294.64 140.53 294.64 140.53H247.302Z" fill="#FFC3BD"/>
<path d="M263.047 140.53C263.047 140.53 280.605 214.266 291.659 245.772C303.289 278.9 343.827 338.495 345.064 340.692C349.615 339.472 349.563 339.245 352.283 336.595C352.283 336.595 328.065 259.878 315.459 237.734C309.897 162.761 297.901 140.53 297.901 140.53H263.047Z" fill="#FFC3BD"/>
<path d="M287.788 302.613C287.544 329.045 285.313 348.765 285.313 348.765C281.651 349.881 280.274 349.742 275.862 348.887C275.862 348.887 271.713 329.516 267.249 305.682H265.889L265.628 303.537C265.578 303.126 265.694 302.712 265.948 302.385C266.203 302.058 266.577 301.846 266.988 301.793C271.068 301.305 282.087 299.928 286.969 298.899C287.177 298.854 287.392 298.852 287.6 298.893C287.809 298.934 288.007 299.018 288.182 299.139C288.357 299.26 288.505 299.416 288.617 299.596C288.73 299.777 288.804 299.979 288.835 300.189L289.148 302.09L287.788 302.613Z" fill="#9A7ED9"/>
<path opacity="0.5" d="M287.788 302.613C287.544 329.045 285.313 348.765 285.313 348.765C281.651 349.881 280.274 349.742 275.862 348.887C275.862 348.887 271.713 329.516 267.249 305.682H265.889L265.628 303.537C265.578 303.126 265.694 302.712 265.948 302.385C266.203 302.058 266.577 301.846 266.988 301.793C271.068 301.305 282.087 299.928 286.969 298.899C287.177 298.854 287.392 298.852 287.6 298.893C287.809 298.934 288.007 299.018 288.182 299.139C288.357 299.26 288.505 299.416 288.617 299.596C288.73 299.777 288.804 299.979 288.835 300.189L289.148 302.09L287.788 302.613Z" fill="white"/>
<path d="M340.025 299.021C347.139 319.682 352.596 336.961 352.596 336.961C349.824 339.664 349.877 339.89 345.221 341.146C344.628 340.082 335.126 325.994 323.984 307.861L322.781 308.471L321.195 305.891C321.108 305.752 321.051 305.597 321.029 305.435C321.006 305.274 321.019 305.109 321.065 304.952C321.111 304.796 321.19 304.65 321.297 304.527C321.403 304.403 321.535 304.303 321.683 304.234C327.346 301.671 332.817 298.705 338.055 295.359C338.193 295.255 338.354 295.184 338.523 295.15C338.693 295.117 338.869 295.122 339.036 295.166C339.204 295.209 339.359 295.29 339.491 295.402C339.623 295.514 339.728 295.655 339.799 295.813L340.949 298.219L340.025 299.021Z" fill="#9A7ED9"/>
<path opacity="0.5" d="M340.025 299.021C347.139 319.682 352.596 336.961 352.596 336.961C349.824 339.664 349.877 339.89 345.221 341.146C344.628 340.082 335.126 325.994 323.984 307.861L322.781 308.471L321.195 305.891C321.108 305.752 321.051 305.597 321.029 305.435C321.006 305.274 321.019 305.109 321.065 304.952C321.111 304.796 321.19 304.65 321.297 304.527C321.403 304.403 321.535 304.303 321.683 304.234C327.346 301.671 332.817 298.705 338.055 295.359C338.193 295.255 338.354 295.184 338.523 295.15C338.693 295.117 338.869 295.122 339.036 295.166C339.204 295.209 339.359 295.29 339.491 295.402C339.623 295.514 339.728 295.655 339.799 295.813L340.949 298.219L340.025 299.021Z" fill="white"/>
<path d="M247.302 138.054C247.302 138.054 242.071 144.924 251.696 236.061C251.696 236.061 271.398 247.516 320.846 238.362C320.846 238.362 318.457 234.457 316.382 214.545C314.307 194.633 307.664 150.329 297.9 140.53L295.355 136.224L249.063 134.48L247.302 138.054Z" fill="#9A7ED9"/>
<path d="M245.245 88.8683C245.437 93.1749 238.62 103.166 246.989 108.937C245.419 112.424 244.094 136.276 247.268 140.53C251.906 144.017 277.03 143.285 297.831 140.53C298.72 131.917 293.978 114.08 299.784 86.2704C300.102 84.748 300.097 83.1758 299.768 81.6556C299.439 80.1355 298.794 78.7016 297.875 77.447C296.956 76.1924 295.783 75.1451 294.433 74.3733C293.083 73.6015 291.585 73.1223 290.037 72.967C288.294 72.7752 286.428 72.6357 284.528 72.5485C277.899 72.0684 271.245 72.0684 264.616 72.5485C262.454 72.7403 260.24 73.0193 258.113 73.3157C254.42 73.8486 251.058 75.7358 248.679 78.6104C246.301 81.4849 245.077 85.1413 245.245 88.8683Z" fill="#9A7ED9"/>
<path opacity="0.4" d="M245.245 88.8683C245.437 93.1749 238.62 103.166 246.989 108.937C245.419 112.424 244.094 136.276 247.268 140.53C251.906 144.017 277.03 143.285 297.831 140.53C298.72 131.917 293.978 114.08 299.784 86.2704C300.102 84.748 300.097 83.1758 299.768 81.6556C299.439 80.1355 298.794 78.7016 297.875 77.447C296.956 76.1924 295.783 75.1451 294.433 74.3733C293.083 73.6015 291.585 73.1223 290.037 72.967C288.294 72.7752 286.428 72.6357 284.528 72.5485C277.899 72.0684 271.245 72.0684 264.616 72.5485C262.454 72.7403 260.24 73.0193 258.113 73.3157C254.42 73.8486 251.058 75.7358 248.679 78.6104C246.301 81.4849 245.077 85.1413 245.245 88.8683Z" fill="white"/>
<path opacity="0.2" d="M298.842 91.6581C297.839 97.5689 297.222 103.539 296.994 109.53C292.217 102.887 286.759 90.8386 287.073 85.1197L298.842 91.6581Z" fill="black"/>
<path opacity="0.2" d="M291.554 241.78L276.716 204.24C281.058 230.115 276.141 239.478 274.798 241.483C280.373 241.912 285.968 242.011 291.554 241.78Z" fill="black"/>
<path d="M264.511 358.337C273.055 358.337 272.445 358.198 277.257 358.041C281.372 357.901 282.313 358.407 285.626 358.337C288.381 358.337 288.468 355.635 287.84 352.601C287.614 351.433 287.248 350.073 286.899 348.399C286.831 347.912 286.588 347.467 286.216 347.146C285.844 346.825 285.368 346.651 284.876 346.655H274.886C274.519 346.657 274.157 346.745 273.831 346.912C273.504 347.078 273.22 347.319 273.003 347.614C271.813 349.167 270.32 350.463 268.614 351.422C266.909 352.381 265.027 352.984 263.082 353.194C258.444 353.891 261.111 358.337 264.511 358.337Z" fill="#263238"/>
<path d="M344.541 355.286C350.574 349.236 350.051 349.585 353.259 346.063C356.066 343.046 357.112 342.75 359.396 340.344C361.297 338.356 359.501 336.421 356.903 334.729C355.909 334.067 354.689 333.369 353.276 332.41C352.876 332.144 352.396 332.026 351.918 332.077C351.441 332.128 350.996 332.345 350.661 332.689L343.599 339.751C343.343 340.012 343.149 340.329 343.035 340.676C342.92 341.024 342.886 341.393 342.937 341.756C343.199 343.697 343.062 345.67 342.534 347.556C342.006 349.442 341.099 351.2 339.868 352.723C337.009 356.437 342.03 357.692 344.541 355.286Z" fill="#263238"/>
<path d="M269.568 59.7856C269.568 59.7856 271.311 71.6419 261.948 73.089C261.948 73.089 259.786 82.0161 263.552 82.6264C264.808 82.8007 281.511 73.6993 281.511 73.6993L284.057 72.6182C284.057 72.6182 282.313 57.8153 284.161 52.3231L269.568 59.7856Z" fill="#FFC3BD"/>
<path opacity="0.2" d="M283.36 52.7067L269.411 59.7856C269.535 61.0029 269.535 62.2297 269.411 63.447C271.068 63.447 275.793 62.924 281.616 56.2635C283.517 54.1713 283.848 53.1251 283.36 52.7067Z" fill="black"/>
<path d="M262.053 81.8243C260.409 86.2663 259.513 90.9504 259.403 95.6857C259.402 96.1314 259.536 96.5669 259.789 96.9344C260.041 97.3019 260.399 97.5839 260.815 97.7431C261.024 97.8222 261.249 97.8494 261.47 97.8224C261.692 97.7954 261.903 97.7149 262.087 97.588C262.27 97.4611 262.42 97.2914 262.524 97.0937C262.627 96.8959 262.681 96.676 262.681 96.4529C262.681 93.1226 262.995 86.3924 265.296 81.8243L263.657 82.7658L262.053 81.8243Z" fill="#9A7ED9"/>
<path opacity="0.8" d="M262.053 81.8243C260.409 86.2663 259.513 90.9504 259.403 95.6857C259.402 96.1314 259.536 96.5669 259.789 96.9344C260.041 97.3019 260.399 97.5839 260.815 97.7431C261.024 97.8222 261.249 97.8494 261.47 97.8224C261.692 97.7954 261.903 97.7149 262.087 97.588C262.27 97.4611 262.42 97.2914 262.524 97.0937C262.627 96.8959 262.681 96.676 262.681 96.4529C262.681 93.1226 262.995 86.3924 265.296 81.8243L263.657 82.7658L262.053 81.8243Z" fill="white"/>
<path d="M264.197 72.3742C262.715 73.647 260.936 76.4018 263.325 81.5977C263.325 81.5977 278.756 70.3168 285.695 72.1824L287.526 72.7229C287.526 72.7229 273.176 79.1915 272.967 85.2068C272.967 85.2068 267.614 80.1156 263.325 83.6725C263.325 83.6725 259.367 79.4356 256.351 84.3525C256.351 84.3525 256.891 74.3967 260.797 72.566L264.005 71.8337C264.066 71.8384 264.123 71.8605 264.172 71.8974C264.22 71.9343 264.256 71.9844 264.277 72.0416C264.297 72.0988 264.3 72.1607 264.286 72.2197C264.272 72.2787 264.241 72.3324 264.197 72.3742Z" fill="#9A7ED9"/>
<path opacity="0.9" d="M264.197 72.3742C262.715 73.647 260.936 76.4018 263.325 81.5977C263.325 81.5977 278.756 70.3168 285.695 72.1824L287.526 72.7229C287.526 72.7229 273.176 79.1915 272.967 85.2068C272.967 85.2068 267.614 80.1156 263.325 83.6725C263.325 83.6725 259.367 79.4356 256.351 84.3525C256.351 84.3525 256.891 74.3967 260.797 72.566L264.005 71.8337C264.066 71.8384 264.123 71.8605 264.172 71.8974C264.22 71.9343 264.256 71.9844 264.277 72.0416C264.297 72.0988 264.3 72.1607 264.286 72.2197C264.272 72.2787 264.241 72.3324 264.197 72.3742Z" fill="white"/>
<g opacity="0.5">
<path d="M284.109 95.6857C283.982 95.7394 283.846 95.7671 283.708 95.7671C283.57 95.7671 283.434 95.7394 283.307 95.6858C283.18 95.6321 283.066 95.5535 282.97 95.4547C282.874 95.3558 282.799 95.2387 282.749 95.1103C277.518 81.9638 282.435 76.89 282.644 76.6808L283.499 77.5351C283.658 77.6909 283.762 77.895 283.793 78.1157C283.825 78.3365 283.783 78.5614 283.673 78.7556C282.766 80.3249 280.988 85.0325 284.667 94.3432C284.766 94.5956 284.763 94.8767 284.659 95.1272C284.555 95.3777 284.358 95.5779 284.109 95.6857Z" fill="white"/>
</g>
<g opacity="0.5">
<path d="M244.705 92.7914C244.059 92.7914 243.85 92.0765 243.746 91.7278C243.118 89.9063 242.25 88.1766 241.165 86.5843C241.031 86.3704 240.981 86.1141 241.027 85.8656C241.072 85.6172 241.208 85.3946 241.409 85.2417C241.517 85.1608 241.641 85.1031 241.772 85.0723C241.904 85.0415 242.04 85.0383 242.173 85.0629C242.305 85.0875 242.432 85.1393 242.543 85.2151C242.655 85.2909 242.75 85.389 242.821 85.5033C243.118 85.9392 243.467 86.5145 243.85 87.2468C244.146 84.7848 244.948 82.4105 246.204 80.2726C246.278 80.1533 246.375 80.0507 246.491 79.9712C246.606 79.8918 246.737 79.8371 246.875 79.8109C247.013 79.7847 247.154 79.7874 247.291 79.8188C247.428 79.8503 247.556 79.9098 247.669 79.9936C247.865 80.1544 247.995 80.3823 248.034 80.6334C248.073 80.8845 248.017 81.141 247.878 81.3536C246.281 84.4349 245.507 87.876 245.629 91.3442C245.716 91.7801 245.472 92.7914 244.705 92.7914Z" fill="white"/>
</g>
<path d="M297.988 139.048C275.809 141.629 253.195 141.786 246.692 139.467C246.559 139.422 246.418 139.405 246.279 139.417C246.139 139.429 246.004 139.47 245.881 139.537C245.758 139.604 245.65 139.696 245.565 139.807C245.479 139.918 245.418 140.046 245.384 140.182L244.878 142.274C244.807 142.519 244.835 142.782 244.956 143.007C245.076 143.232 245.28 143.401 245.523 143.477C249.516 144.767 256.316 145.308 264.249 145.343C276.49 145.267 288.716 144.475 300.864 142.971C300.952 142.958 301.035 142.921 301.105 142.865C301.174 142.809 301.227 142.736 301.259 142.653C301.291 142.569 301.3 142.479 301.286 142.391C301.272 142.304 301.235 142.221 301.178 142.152L299.103 139.502C298.97 139.339 298.798 139.212 298.603 139.132C298.408 139.053 298.197 139.024 297.988 139.048Z" fill="#263238"/>
<path d="M264.773 146.581H259.542V145.325H264.773C264.841 145.325 264.908 145.312 264.971 145.285C265.033 145.259 265.09 145.22 265.137 145.171C265.184 145.122 265.221 145.064 265.245 145.001C265.27 144.938 265.281 144.87 265.279 144.802V141.611C265.279 141.476 265.226 141.345 265.132 141.248C265.037 141.15 264.909 141.093 264.773 141.088H259.542V139.885H264.773C265.235 139.885 265.679 140.069 266.006 140.396C266.333 140.723 266.517 141.166 266.517 141.629V144.82C266.519 145.05 266.475 145.279 266.389 145.492C266.302 145.706 266.174 145.9 266.012 146.064C265.85 146.228 265.657 146.358 265.444 146.446C265.232 146.535 265.003 146.581 264.773 146.581Z" fill="#263238"/>
<g opacity="0.6">
<path d="M264.773 146.581H259.542V145.325H264.773C264.841 145.325 264.908 145.312 264.971 145.285C265.033 145.259 265.09 145.22 265.137 145.171C265.184 145.122 265.221 145.064 265.245 145.001C265.27 144.938 265.281 144.87 265.279 144.802V141.611C265.279 141.476 265.226 141.345 265.132 141.248C265.037 141.15 264.909 141.093 264.773 141.088H259.542V139.885H264.773C265.235 139.885 265.679 140.069 266.006 140.396C266.333 140.723 266.517 141.166 266.517 141.629V144.82C266.519 145.05 266.475 145.279 266.389 145.492C266.302 145.706 266.174 145.9 266.012 146.064C265.85 146.228 265.657 146.358 265.444 146.446C265.232 146.535 265.003 146.581 264.773 146.581Z" fill="white"/>
</g>
<path d="M289.393 38.3396C286.899 48.8011 286.045 53.2472 279.873 57.7281C270.579 64.4758 258.566 59.1404 257.973 48.1908C257.433 38.3222 261.6 22.9265 272.462 20.5203C274.875 20.0026 277.38 20.1134 279.737 20.8421C282.095 21.5709 284.226 22.893 285.925 24.6818C287.625 26.4706 288.836 28.6661 289.443 31.0577C290.05 33.4493 290.033 35.9567 289.393 38.3396Z" fill="#FFC3BD"/>
<path d="M271.957 42.5939C271.8 43.4483 271.224 44.0585 270.666 43.9539C270.108 43.8493 269.777 43.0821 269.917 42.2103C270.056 41.3386 270.649 40.7283 271.224 40.8329C271.8 40.9376 272.113 41.7222 271.957 42.5939Z" fill="#263238"/>
<path d="M261.373 40.8678C261.216 41.7222 260.64 42.3499 260.082 42.2452C259.524 42.1406 259.193 41.3735 259.35 40.5017C259.507 39.6299 260.082 39.0371 260.64 39.1417C261.198 39.2463 261.529 40.0135 261.373 40.8678Z" fill="#263238"/>
<path d="M260.85 39.2289L258.897 38.2699C258.897 38.2699 259.699 40.0658 260.85 39.2289Z" fill="#263238"/>
<path d="M263.936 41.5653C262.826 43.3866 261.471 45.0468 259.909 46.4996C260.292 46.8896 260.756 47.1915 261.268 47.3842C261.78 47.5769 262.327 47.6558 262.873 47.6155L263.936 41.5653Z" fill="#ED847E"/>
<path d="M269.045 51.7826C268.559 51.7765 268.075 51.7298 267.597 51.6431C267.563 51.6391 267.531 51.6279 267.501 51.6104C267.472 51.5929 267.446 51.5694 267.427 51.5415C267.407 51.5135 267.393 51.4817 267.387 51.4482C267.38 51.4146 267.381 51.3801 267.388 51.3467C267.401 51.2803 267.439 51.2213 267.494 51.1823C267.549 51.1433 267.618 51.1272 267.685 51.1374C268.754 51.3359 269.854 51.2816 270.899 50.9789C271.943 50.6761 272.903 50.1333 273.7 49.3939C273.723 49.3707 273.75 49.3523 273.78 49.3397C273.81 49.3271 273.842 49.3206 273.874 49.3206C273.907 49.3206 273.939 49.3271 273.969 49.3397C273.999 49.3523 274.026 49.3707 274.049 49.3939C274.097 49.4428 274.123 49.5085 274.123 49.577C274.123 49.6454 274.097 49.7111 274.049 49.76C272.707 51.059 270.912 51.7845 269.045 51.7826Z" fill="#263238"/>
<path d="M274.99 37.7294C274.923 37.71 274.86 37.6768 274.806 37.6317C274.752 37.5867 274.708 37.5309 274.677 37.4679C274.408 36.8858 274.007 36.3755 273.503 35.9786C273 35.5816 272.411 35.3093 271.782 35.1838C271.707 35.1854 271.633 35.171 271.564 35.1414C271.496 35.1118 271.434 35.0679 271.384 35.0125C271.333 34.9571 271.295 34.8915 271.273 34.8202C271.25 34.7489 271.243 34.6735 271.251 34.5992C271.26 34.5249 271.285 34.4533 271.324 34.3893C271.363 34.3253 271.415 34.2705 271.477 34.2283C271.539 34.1862 271.609 34.1579 271.683 34.1453C271.756 34.1326 271.832 34.136 271.904 34.1551C272.703 34.3033 273.456 34.64 274.099 35.1374C274.742 35.6347 275.256 36.2782 275.601 37.0145C275.657 37.1354 275.664 37.2731 275.622 37.3995C275.58 37.5258 275.491 37.6313 275.374 37.6945C275.316 37.726 275.252 37.7454 275.186 37.7514C275.12 37.7574 275.053 37.7499 274.99 37.7294Z" fill="#263238"/>
<path d="M258.356 35.5674C258.225 35.5385 258.107 35.4645 258.025 35.3581C257.984 35.3046 257.955 35.2434 257.938 35.1783C257.921 35.1131 257.917 35.0453 257.927 34.9787C257.937 34.9121 257.96 34.8482 257.994 34.7906C258.029 34.733 258.075 34.6829 258.13 34.6433C258.766 34.1369 259.514 33.7903 260.312 33.6326C261.11 33.4748 261.934 33.5105 262.715 33.7366C262.779 33.7598 262.837 33.7955 262.887 33.8416C262.936 33.8878 262.976 33.9434 263.003 34.0052C263.031 34.067 263.046 34.1337 263.047 34.2014C263.049 34.269 263.037 34.3363 263.011 34.3992C262.99 34.4621 262.956 34.5201 262.912 34.5695C262.867 34.6189 262.813 34.6587 262.753 34.6864C262.692 34.7142 262.627 34.7293 262.561 34.7309C262.494 34.7325 262.428 34.7204 262.366 34.6956C261.744 34.5322 261.092 34.5165 260.462 34.6497C259.833 34.7829 259.243 35.0613 258.74 35.4628C258.631 35.5468 258.493 35.5843 258.356 35.5674Z" fill="#263238"/>
<path d="M271.451 40.9376L269.498 39.9786C269.498 39.9786 270.265 41.7919 271.451 40.9376Z" fill="#263238"/>
<path d="M268.713 20.6947C268.713 20.6947 254.137 31.1561 263.046 30.1972C263.046 30.1972 264.877 33.7889 270.474 31.4177C270.474 31.4177 275.286 35.7068 277.222 32.8823C277.222 32.8823 283.76 36.7181 282.452 29.6218C282.452 29.6218 284.684 31.7315 284.405 38.3396C284.126 44.9478 285.765 45.8893 285.765 45.8893L288.398 45.6103C288.398 45.6103 296.941 26.1346 281.511 20.1367C281.441 20.067 273.543 16.8414 268.713 20.6947Z" fill="#263238"/>
<path d="M254.381 39.9263C254.277 42.7857 256.038 45.157 258.304 45.279C260.571 45.4011 262.524 43.0996 262.646 40.2401C262.646 40.2401 262.646 40.1006 262.646 40.0309C263.015 39.7153 263.485 39.5419 263.971 39.5419C264.457 39.5419 264.927 39.7153 265.296 40.0309C265.286 40.1061 265.286 40.1823 265.296 40.2576C265.395 41.507 265.94 42.6794 266.83 43.5612C267.721 44.4431 268.899 44.9758 270.149 45.0624C271.399 45.149 272.639 44.7837 273.643 44.0331C274.647 43.2824 275.348 42.1963 275.618 40.9724L287.561 42.9601V42.315L275.618 40.3273C275.507 39.1184 274.979 37.9859 274.124 37.1238C273.269 36.2618 272.141 35.7238 270.933 35.6022C269.725 35.4806 268.513 35.7829 267.503 36.4573C266.494 37.1317 265.751 38.1362 265.401 39.2986C264.99 39.0271 264.512 38.8737 264.02 38.8552C263.528 38.8368 263.041 38.954 262.611 39.194C262.595 38.1195 262.194 37.0864 261.48 36.2831C260.767 35.4798 259.788 34.9596 258.723 34.8176C257.472 34.9243 256.313 35.521 255.5 36.4779C254.687 37.4348 254.285 38.6743 254.381 39.9263ZM265.889 40.3622C265.924 39.4624 266.226 38.5933 266.755 37.8649C267.284 37.1365 268.018 36.5815 268.863 36.2702C269.708 35.959 270.626 35.9054 271.502 36.1162C272.377 36.3271 273.17 36.7929 273.781 37.4548C274.391 38.1166 274.792 38.9448 274.932 39.8343C275.071 40.7239 274.944 41.6349 274.566 42.4521C274.188 43.2693 273.575 43.9559 272.807 44.4249C272.038 44.894 271.147 45.1245 270.248 45.0872C269.651 45.0648 269.064 44.9246 268.521 44.6747C267.979 44.4248 267.491 44.0701 267.086 43.631C266.681 43.1919 266.367 42.677 266.161 42.116C265.956 41.5551 265.863 40.959 265.889 40.3622ZM255.026 39.9437C255.228 39.3022 255.605 38.7298 256.115 38.2911C256.625 37.8525 257.247 37.565 257.912 37.4612C258.576 37.3573 259.257 37.4412 259.876 37.7033C260.495 37.9655 261.029 38.3955 261.417 38.9449C261.805 39.4942 262.032 40.141 262.072 40.8124C262.112 41.4838 261.964 42.153 261.644 42.7445C261.324 43.336 260.845 43.8264 260.261 44.1602C259.677 44.4941 259.011 44.6581 258.339 44.6339C256.404 44.5642 254.922 42.4544 255.026 39.9437Z" fill="#9A7ED9"/>
<path opacity="0.5" d="M254.381 39.9263C254.277 42.7857 256.038 45.157 258.304 45.279C260.571 45.4011 262.524 43.0996 262.646 40.2401C262.646 40.2401 262.646 40.1006 262.646 40.0309C263.015 39.7153 263.485 39.5419 263.971 39.5419C264.457 39.5419 264.927 39.7153 265.296 40.0309C265.286 40.1061 265.286 40.1823 265.296 40.2576C265.395 41.507 265.94 42.6794 266.83 43.5612C267.721 44.4431 268.899 44.9758 270.149 45.0624C271.399 45.149 272.639 44.7837 273.643 44.0331C274.647 43.2824 275.348 42.1963 275.618 40.9724L287.561 42.9601V42.315L275.618 40.3273C275.507 39.1184 274.979 37.9859 274.124 37.1238C273.269 36.2618 272.141 35.7238 270.933 35.6022C269.725 35.4806 268.513 35.7829 267.503 36.4573C266.494 37.1317 265.751 38.1362 265.401 39.2986C264.99 39.0271 264.512 38.8737 264.02 38.8552C263.528 38.8368 263.041 38.954 262.611 39.194C262.595 38.1195 262.194 37.0864 261.48 36.2831C260.767 35.4798 259.788 34.9596 258.723 34.8176C257.472 34.9243 256.313 35.521 255.5 36.4779C254.687 37.4348 254.285 38.6743 254.381 39.9263ZM265.889 40.3622C265.924 39.4624 266.226 38.5933 266.755 37.8649C267.284 37.1365 268.018 36.5815 268.863 36.2702C269.708 35.959 270.626 35.9054 271.502 36.1162C272.377 36.3271 273.17 36.7929 273.781 37.4548C274.391 38.1166 274.792 38.9448 274.932 39.8343C275.071 40.7239 274.944 41.6349 274.566 42.4521C274.188 43.2693 273.575 43.9559 272.807 44.4249C272.038 44.894 271.147 45.1245 270.248 45.0872C269.651 45.0648 269.064 44.9246 268.521 44.6747C267.979 44.4248 267.491 44.0701 267.086 43.631C266.681 43.1919 266.367 42.677 266.161 42.116C265.956 41.5551 265.863 40.959 265.889 40.3622ZM255.026 39.9437C255.228 39.3022 255.605 38.7298 256.115 38.2911C256.625 37.8525 257.247 37.565 257.912 37.4612C258.576 37.3573 259.257 37.4412 259.876 37.7033C260.495 37.9655 261.029 38.3955 261.417 38.9449C261.805 39.4942 262.032 40.141 262.072 40.8124C262.112 41.4838 261.964 42.153 261.644 42.7445C261.324 43.336 260.845 43.8264 260.261 44.1602C259.677 44.4941 259.011 44.6581 258.339 44.6339C256.404 44.5642 254.922 42.4544 255.026 39.9437Z" fill="white"/>
<path d="M290.159 48.0513C289.765 48.9432 289.184 49.7406 288.456 50.39C287.729 51.0395 286.871 51.5261 285.94 51.8174C283.551 52.48 282.453 49.8821 283.046 47.2319C283.638 44.5816 285.626 41.635 288.015 42.1581C290.403 42.6811 291.258 45.715 290.159 48.0513Z" fill="#FFC3BD"/>
<path d="M276.839 77.0469L278.582 82.6264L249.465 91.6755L247.826 90.734L246.431 88.3278L247.372 86.1832L250.18 85.3289L276.839 77.0469Z" fill="#263238"/>
<path opacity="0.7" d="M276.839 77.0469L278.582 82.6264L249.465 91.6755L247.826 90.734L246.431 88.3278L247.372 86.1832L250.18 85.3289L276.839 77.0469Z" fill="white"/>
<path d="M246.134 90.0366L257.049 125.17C257.445 126.053 258.154 126.758 259.04 127.147C259.926 127.537 260.925 127.584 261.844 127.279L289.549 118.683C289.769 118.611 289.953 118.456 290.06 118.251C290.167 118.046 290.191 117.807 290.125 117.585L279.21 82.4346L249.569 91.6406L247.826 90.734L246.134 90.0366Z" fill="#9A7ED9"/>
<path d="M249.412 91.536L247.825 90.7339L246.081 90.0365L256.996 125.169C257.293 125.847 257.781 126.424 258.4 126.829C259.02 127.235 259.743 127.452 260.483 127.454L249.412 91.536Z" fill="#263238"/>
<path d="M278.634 83.533L250.946 92.1463C250.025 92.4441 249.027 92.3939 248.14 92.0052C247.253 91.6164 246.539 90.916 246.134 90.0366C245.91 89.5413 245.794 89.0038 245.794 88.4601C245.794 87.9164 245.91 87.379 246.134 86.8838C246.359 86.3886 246.687 85.947 247.095 85.5887C247.504 85.2303 247.985 84.9634 248.505 84.8059L276.403 76.088C276.625 76.022 276.864 76.0452 277.069 76.1526C277.274 76.2601 277.429 76.4433 277.501 76.6634C277.572 76.8876 277.552 77.131 277.444 77.3402C277.336 77.5493 277.15 77.7073 276.926 77.7793L249.185 86.3925C248.682 86.5319 248.247 86.8535 247.967 87.2948C247.687 87.7362 247.58 88.2659 247.669 88.7812C247.722 89.0644 247.834 89.3331 247.999 89.5695C248.164 89.806 248.377 90.0049 248.624 90.1532C248.871 90.3015 249.147 90.3957 249.433 90.4297C249.719 90.4637 250.009 90.4366 250.284 90.3504L278.181 81.6325C278.403 81.5665 278.642 81.5897 278.847 81.6972C279.052 81.8046 279.207 81.9878 279.28 82.2079C279.357 82.333 279.401 82.4757 279.409 82.6226C279.416 82.7695 279.386 82.9159 279.322 83.0482C279.258 83.1804 279.161 83.2943 279.041 83.379C278.92 83.4638 278.781 83.5168 278.634 83.533Z" fill="#9A7ED9"/>
<g opacity="0.2">
<path d="M278.634 83.533L250.946 92.1463C250.025 92.4441 249.027 92.3939 248.14 92.0052C247.253 91.6164 246.539 90.916 246.134 90.0366C245.91 89.5413 245.794 89.0038 245.794 88.4601C245.794 87.9164 245.91 87.379 246.134 86.8838C246.359 86.3886 246.687 85.947 247.095 85.5887C247.504 85.2303 247.985 84.9634 248.505 84.8059L276.403 76.088C276.625 76.022 276.864 76.0452 277.069 76.1526C277.274 76.2601 277.429 76.4433 277.501 76.6634C277.572 76.8876 277.552 77.131 277.444 77.3402C277.336 77.5493 277.15 77.7073 276.926 77.7793L249.185 86.3925C248.682 86.5319 248.247 86.8535 247.967 87.2948C247.687 87.7362 247.58 88.2659 247.669 88.7812C247.722 89.0644 247.834 89.3331 247.999 89.5695C248.164 89.806 248.377 90.0049 248.624 90.1532C248.871 90.3015 249.147 90.3957 249.433 90.4297C249.719 90.4637 250.009 90.4366 250.284 90.3504L278.181 81.6325C278.403 81.5665 278.642 81.5897 278.847 81.6972C279.052 81.8046 279.207 81.9878 279.28 82.2079C279.357 82.333 279.401 82.4757 279.409 82.6226C279.416 82.7695 279.386 82.9159 279.322 83.0482C279.258 83.1804 279.161 83.2943 279.041 83.379C278.92 83.4638 278.781 83.5168 278.634 83.533Z" fill="black"/>
</g>
<path opacity="0.9" d="M273.011 89.4589L258.025 94.1122L261.179 104.27L276.165 99.6162L273.011 89.4589Z" fill="white"/>
<path d="M280.203 83.6899L282.104 89.8447L250.109 99.7831L248.313 98.7369L246.779 96.0867L247.825 93.7504L250.894 92.7914L280.203 83.6899Z" fill="#263238"/>
<path opacity="0.7" d="M280.203 83.6899L282.104 89.8447L250.109 99.7831L248.313 98.7369L246.779 96.0867L247.825 93.7504L250.894 92.7914L280.203 83.6899Z" fill="white"/>
<path d="M246.448 97.9698L258.444 136.607C258.883 137.565 259.657 138.329 260.62 138.756C261.584 139.183 262.67 139.243 263.674 138.926L294.1 129.476C294.343 129.4 294.547 129.231 294.667 129.006C294.788 128.781 294.816 128.518 294.745 128.273L282.749 89.653L250.214 99.7657L248.261 98.7718L246.448 97.9698Z" fill="#9A7ED9"/>
<path d="M250.057 99.6262L248.313 98.737L246.448 97.9698L258.444 136.607C258.772 137.359 259.313 137.998 260.002 138.444C260.69 138.891 261.494 139.125 262.314 139.118L250.057 99.6262Z" fill="#263238"/>
<path d="M282.156 90.8386L251.731 100.289C250.726 100.606 249.64 100.545 248.677 100.118C247.714 99.6911 246.94 98.9272 246.5 97.9698C246.272 97.4299 246.159 96.8481 246.168 96.2619C246.178 95.6756 246.31 95.0979 246.557 94.5658C246.803 94.0337 247.158 93.5591 247.599 93.1724C248.039 92.7857 248.556 92.4956 249.116 92.3206L279.733 82.8181C279.978 82.7472 280.241 82.7749 280.466 82.8955C280.691 83.0161 280.859 83.2199 280.936 83.4633C280.974 83.5835 280.988 83.71 280.977 83.8355C280.965 83.961 280.93 84.0831 280.871 84.1949C280.813 84.3066 280.733 84.4058 280.637 84.4867C280.54 84.5676 280.429 84.6286 280.308 84.6663L249.831 94.134C249.263 94.2751 248.77 94.6237 248.447 95.1111C248.124 95.5986 247.996 96.1893 248.087 96.7667C248.144 97.0794 248.267 97.3764 248.448 97.6381C248.628 97.8998 248.862 98.1202 249.134 98.285C249.406 98.4497 249.709 98.555 250.025 98.5938C250.34 98.6327 250.66 98.6042 250.964 98.5103L281.581 89.0078C281.701 88.97 281.828 88.9562 281.953 88.9672C282.079 88.9783 282.201 89.014 282.313 89.0723C282.424 89.1306 282.524 89.2104 282.604 89.307C282.685 89.4036 282.746 89.5153 282.784 89.6355C282.856 89.8783 282.831 90.1394 282.713 90.3639C282.596 90.5883 282.397 90.7585 282.156 90.8386Z" fill="#9A7ED9"/>
<g opacity="0.2">
<path d="M282.156 90.8386L251.731 100.289C250.726 100.606 249.64 100.545 248.677 100.118C247.714 99.6911 246.94 98.9272 246.5 97.9698C246.272 97.4299 246.159 96.8481 246.168 96.2619C246.178 95.6756 246.31 95.0979 246.557 94.5658C246.803 94.0337 247.158 93.5591 247.599 93.1724C248.039 92.7857 248.556 92.4956 249.116 92.3206L279.733 82.8181C279.978 82.7472 280.241 82.7749 280.466 82.8955C280.691 83.0161 280.859 83.2199 280.936 83.4633C280.974 83.5835 280.988 83.71 280.977 83.8355C280.965 83.961 280.93 84.0831 280.871 84.1949C280.813 84.3066 280.733 84.4058 280.637 84.4867C280.54 84.5676 280.429 84.6286 280.308 84.6663L249.831 94.134C249.263 94.2751 248.77 94.6237 248.447 95.1111C248.124 95.5986 247.996 96.1893 248.087 96.7667C248.144 97.0794 248.267 97.3764 248.448 97.6381C248.628 97.8998 248.862 98.1202 249.134 98.285C249.406 98.4497 249.709 98.555 250.025 98.5938C250.34 98.6327 250.66 98.6042 250.964 98.5103L281.581 89.0078C281.701 88.97 281.828 88.9562 281.953 88.9672C282.079 88.9783 282.201 89.014 282.313 89.0723C282.424 89.1306 282.524 89.2104 282.604 89.307C282.685 89.4036 282.746 89.5153 282.784 89.6355C282.856 89.8783 282.831 90.1394 282.713 90.3639C282.596 90.5883 282.397 90.7585 282.156 90.8386Z" fill="black"/>
</g>
<path opacity="0.9" d="M276 97.3425L259.532 102.456L262.996 113.613L279.464 108.499L276 97.3425Z" fill="white"/>
<path d="M269.184 109.826L264.86 104.02L256.91 112.842C256.91 112.842 262.14 117.602 267.755 118.073L268.557 116.731C269.19 115.707 269.576 114.551 269.685 113.352C269.794 112.154 269.622 110.947 269.184 109.826Z" fill="#FFC3BD"/>
<path d="M256.892 103.602L254.538 106.967C254.032 107.718 253.838 108.637 253.998 109.528C254.157 110.42 254.657 111.215 255.392 111.744L256.909 112.808L264.86 103.985L261.094 102.346C260.355 102.043 259.535 102.002 258.771 102.231C258.006 102.459 257.343 102.943 256.892 103.602Z" fill="#FFC3BD"/>
<path d="M305.328 99.9923C304.78 96.6009 303.999 93.2512 302.992 89.9668C302.503 88.3453 301.98 86.7412 301.388 85.172C301.091 84.3699 300.795 83.5853 300.463 82.7833C300.132 81.9812 299.836 81.2664 299.382 80.3074C298.539 78.2935 296.929 76.6974 294.908 75.8702C292.888 75.0429 290.621 75.0523 288.607 75.8962C286.593 76.7401 284.997 78.3495 284.17 80.3702C283.343 82.391 283.352 84.6576 284.196 86.6714L284.335 87.0202L285.033 88.8509L285.748 90.8386C286.218 92.1811 286.689 93.5237 287.108 94.8837C287.979 97.5688 288.694 100.289 289.27 102.939C289.834 105.474 290.184 108.052 290.316 110.646C290.366 111.862 290.325 113.08 290.194 114.29H290.037C287.819 114.153 285.616 113.844 283.446 113.366C281.11 112.895 278.704 112.285 276.28 111.622L268.992 109.617H268.835C267.907 109.379 266.925 109.47 266.057 109.876C265.189 110.282 264.489 110.978 264.077 111.843C263.665 112.708 263.566 113.689 263.798 114.619C264.03 115.549 264.578 116.369 265.348 116.94C267.554 118.566 269.854 120.063 272.235 121.421C274.636 122.818 277.116 124.075 279.663 125.187C282.401 126.414 285.258 127.354 288.189 127.994C290.004 128.382 291.861 128.54 293.716 128.465C294.98 128.416 296.23 128.187 297.43 127.785C299.091 127.237 300.61 126.325 301.876 125.117C302.468 124.543 302.947 123.863 303.288 123.112L303.428 122.781C305.098 119.021 306.005 114.968 306.095 110.855C306.218 107.217 305.961 103.577 305.328 99.9923Z" fill="#FFC3BD"/>
<path d="M286.167 97.377C292.12 94.3184 298.895 93.2432 305.503 94.3083C305.503 94.3083 301.336 71.5372 289.601 74.1526C276.769 77.0295 286.167 97.377 286.167 97.377Z" fill="#9A7ED9"/>
<path opacity="0.4" d="M286.167 97.377C292.12 94.3184 298.895 93.2432 305.503 94.3083C305.503 94.3083 301.336 71.5372 289.601 74.1526C276.769 77.0295 286.167 97.377 286.167 97.377Z" fill="white"/>
<g opacity="0.5">
<path d="M287.561 94.1863C287.485 94.0657 287.436 93.9306 287.417 93.7899C287.397 93.6491 287.407 93.5057 287.447 93.3692C287.486 93.2326 287.554 93.1059 287.646 92.9974C287.738 92.8888 287.851 92.8008 287.979 92.7391C292.62 90.4449 297.913 89.8288 302.957 90.9955C303.09 91.035 303.214 91.1011 303.322 91.19C303.429 91.2788 303.517 91.3885 303.58 91.5124C303.644 91.6363 303.682 91.7718 303.691 91.9108C303.701 92.0497 303.682 92.1891 303.637 92.3206C303.549 92.5725 303.368 92.7814 303.132 92.9045C302.895 93.0277 302.62 93.0558 302.364 92.9832C297.803 92.0266 293.053 92.6411 288.886 94.7268C288.763 94.7784 288.632 94.8053 288.499 94.8061C288.366 94.8069 288.234 94.7814 288.111 94.7312C287.988 94.681 287.876 94.607 287.782 94.5135C287.687 94.42 287.612 94.3088 287.561 94.1863Z" fill="white"/>
</g>
<path d="M46.8959 161.872C46.8959 161.872 19.7834 223.943 42.694 231.702C65.6045 239.461 56.6425 160.651 56.6425 160.651L52.6323 162.395C52.6323 162.395 58.0199 228.005 43.8273 227.43C29.6346 226.855 49.1975 162.168 49.1975 162.168L46.8959 161.872Z" fill="#263238"/>
<path d="M88.6545 87.0724L81.0525 102.241L86.475 105.851L92.037 88.6939L88.6545 87.0724Z" fill="#263238"/>
<path d="M171.927 80.2376C171.608 79.9912 171.243 79.8102 170.854 79.7048C170.464 79.5995 170.058 79.572 169.658 79.6238C169.258 79.6756 168.872 79.8058 168.523 80.0069C168.173 80.2079 167.866 80.4759 167.62 80.7955L167.533 80.9001C164.514 84.921 161.278 88.7742 157.839 92.4426C157.002 93.297 156.095 94.1862 155.328 94.8139C154.831 95.2241 154.313 95.6082 153.777 95.9646C151.347 91.5359 148.895 87.1305 146.419 82.7483C143.873 78.215 141.188 73.6469 138.695 69.2531C137.852 67.9061 136.524 66.9347 134.985 66.54C133.446 66.1452 131.814 66.3575 130.427 67.1327C129.04 67.9079 128.004 69.1867 127.534 70.7044C127.064 72.2221 127.196 73.8625 127.902 75.2859C130.465 80.0458 133.133 84.5442 135.922 89.0601C138.712 93.5759 141.554 97.9697 144.501 102.346L145.198 103.375C145.593 103.94 146.043 104.466 146.541 104.944C147.809 106.163 149.411 106.976 151.144 107.28C152.686 107.52 154.264 107.364 155.729 106.827C156.753 106.444 157.726 105.934 158.624 105.31C159.998 104.336 161.251 103.2 162.355 101.928C163.332 100.813 164.252 99.6491 165.11 98.4405C168.253 93.8972 170.884 89.0205 172.956 83.8991C173.218 83.2615 173.259 82.5547 173.073 81.8911C172.886 81.2275 172.483 80.6454 171.927 80.2376Z" fill="#B55B52"/>
<path d="M174.804 69.4798L171.561 70.6654C170.963 70.8867 170.427 71.2473 169.996 71.7173C169.566 72.1873 169.253 72.7531 169.085 73.3679L167.481 79.1915C167.173 80.3399 167.14 81.5448 167.385 82.7083C167.631 83.8718 168.147 84.9609 168.893 85.8868L169.852 87.0376C175.345 85.4509 180.087 79.6797 180.087 79.6797L181.639 78.1802C181.962 77.8823 182.223 77.5234 182.407 77.1242C182.591 76.7249 182.694 76.2932 182.71 75.854C182.726 75.4147 182.656 74.9766 182.502 74.5649C182.348 74.1532 182.114 73.776 181.813 73.4551L178.902 70.3516C178.378 69.8228 177.711 69.4585 176.983 69.3036C176.255 69.1488 175.498 69.21 174.804 69.4798Z" fill="#B55B52"/>
<path d="M130.971 59.1927C142.165 61.2501 143.996 68.7824 152.365 83.8642C150.801 87.043 148.546 89.8314 145.764 92.0248C142.982 94.2183 139.745 95.761 136.289 96.54C136.289 96.54 116.953 70.1772 130.971 59.1927Z" fill="#9A7ED9"/>
<path opacity="0.4" d="M130.971 59.1927C142.165 61.2501 143.996 68.7824 152.365 83.8642C150.801 87.043 148.546 89.8314 145.764 92.0248C142.982 94.2183 139.745 95.761 136.289 96.54C136.289 96.54 116.953 70.1772 130.971 59.1927Z" fill="white"/>
<path opacity="0.2" d="M143.124 80.3422C143.961 84.0475 145.219 87.6451 146.873 91.0652C143.892 93.7951 140.24 95.6844 136.289 96.54C133.233 92.2196 130.672 87.5701 128.652 82.6786L143.124 80.3422Z" fill="black"/>
<g opacity="0.5">
<path d="M146.419 88.6939L145.879 87.8221L145.338 86.9329C146.838 85.8945 148.04 84.482 148.825 82.8355C148.938 82.6103 149.133 82.4365 149.369 82.3491C149.605 82.2617 149.866 82.2673 150.098 82.3648C150.233 82.4191 150.355 82.5008 150.456 82.6049C150.558 82.7089 150.637 82.833 150.687 82.9692C150.738 83.1053 150.76 83.2506 150.752 83.3957C150.743 83.5408 150.705 83.6825 150.639 83.8119C149.684 85.7809 148.229 87.4645 146.419 88.6939Z" fill="white"/>
</g>
<path d="M140.316 129.633C140.316 129.633 148.075 190.013 147.395 228.354C150.098 264.324 152.347 339.803 156.444 347.946C156.305 349.794 149.889 350.195 148.162 349.096C148.162 349.096 121.277 286.746 124.903 228.354C100.197 167.381 101.679 129.633 101.679 129.633H140.316Z" fill="#B55B52"/>
<path d="M134.127 308.89C140.115 307.421 146.197 306.367 152.33 305.734C153.393 305.891 153.603 311.191 153.324 311.854C153.225 311.932 153.113 311.991 152.992 312.028C153.393 320.083 155.067 336.56 156.985 347.789C156.985 347.789 148.564 349.532 146.524 349.236C143.629 342.663 137.806 322.594 135.801 315.271H135.574C134.724 313.244 134.234 311.085 134.127 308.89Z" fill="#9A7ED9"/>
<path opacity="0.5" d="M134.127 308.89C140.115 307.421 146.197 306.367 152.33 305.734C153.393 305.891 153.603 311.191 153.324 311.854C153.225 311.932 153.113 311.991 152.992 312.028C153.393 320.083 155.067 336.56 156.985 347.789C156.985 347.789 148.564 349.532 146.524 349.236C143.629 342.663 137.806 322.594 135.801 315.271H135.574C134.724 313.244 134.234 311.085 134.127 308.89Z" fill="white"/>
<path d="M171.927 354.449C163.68 355.861 162.756 355.478 158.066 356.193C154.056 356.733 153.724 357.675 149.714 358.372C147.047 358.825 145.53 355.966 145.634 353.612C145.634 352.2 145.983 350.544 145.966 348.8C145.956 348.35 146.109 347.911 146.397 347.565C146.686 347.218 147.09 346.988 147.535 346.917L156.078 345.435C156.74 345.312 157.423 345.456 157.979 345.836C159.879 347.347 162.064 348.462 164.402 349.115C166.741 349.768 169.187 349.945 171.596 349.637C176.164 349.201 175.17 353.874 171.927 354.449Z" fill="#263238"/>
<path d="M129.803 129.633C129.803 129.633 112.141 197.632 105.149 231.161C97.8088 266.312 88.132 325.314 90.172 348.73C88.2017 349.898 84.5577 350.038 80.5823 348.73C80.5823 348.73 64.8902 270.269 80.6869 232.643C73.7126 149.405 95.7514 129.476 95.7514 129.476L129.803 129.633Z" fill="#B55B52"/>
<path d="M74.4268 306.135C80.5748 305.634 86.7496 305.552 92.9087 305.891C93.9374 306.222 93.2923 311.488 92.9087 312.08C92.9087 312.08 92.7518 312.168 92.56 312.22C91.6707 320.24 90.6943 336.769 90.8164 348.155C90.8164 348.155 82.2206 348.538 80.2329 347.893C78.4894 340.919 75.8391 320.223 75.0022 312.673H74.7755C74.2798 310.531 74.1618 308.318 74.4268 306.135Z" fill="#9A7ED9"/>
<path opacity="0.5" d="M74.4268 306.135C80.5748 305.634 86.7496 305.552 92.9087 305.891C93.9374 306.222 93.2923 311.488 92.9087 312.08C92.9087 312.08 92.7518 312.168 92.56 312.22C91.6707 320.24 90.6943 336.769 90.8164 348.155C90.8164 348.155 82.2206 348.538 80.2329 347.893C78.4894 340.919 75.8391 320.223 75.0022 312.673H74.7755C74.2798 310.531 74.1618 308.318 74.4268 306.135Z" fill="white"/>
<path d="M100.65 358.302C92.1069 358.302 92.7172 358.163 87.9049 358.006C83.7901 357.849 82.8485 358.372 79.5358 358.302C76.7809 358.302 76.6938 355.6 77.3214 352.566C77.5655 351.398 77.9142 350.038 78.263 348.347C78.3532 347.879 78.6055 347.458 78.9755 347.158C79.3455 346.859 79.8094 346.699 80.2855 346.708H90.2762C90.6416 346.708 91.002 346.793 91.3288 346.956C91.6557 347.12 91.94 347.357 92.1592 347.649C93.3442 349.207 94.8358 350.506 96.5421 351.466C98.2483 352.426 100.133 353.025 102.08 353.229C106.718 353.856 104.05 358.302 100.65 358.302Z" fill="#263238"/>
<path d="M144.449 74.2571C144.708 80.8658 144.609 87.4836 144.153 94.0815C143.804 102.695 145.286 127.209 139.201 128.761C134.476 131.533 110.589 130.505 95.3153 128.552C88.062 126.425 100.372 107.368 86.8938 71.6766C84.54 65.4521 89.2477 59.1927 96.0825 58.5301C97.9132 58.3558 99.8486 58.2163 101.836 58.1291C108.803 57.6579 115.793 57.6579 122.759 58.1291C125.043 58.3209 127.397 58.5999 129.646 58.8788C137.789 59.8901 144.205 66.6203 144.449 74.2571Z" fill="#9A7ED9"/>
<path opacity="0.4" d="M144.449 74.2571C144.708 80.8658 144.609 87.4836 144.153 94.0815C143.804 102.695 145.286 127.209 139.201 128.761C134.476 131.533 110.589 130.505 95.3153 128.552C88.062 126.425 100.372 107.368 86.8938 71.6766C84.54 65.4521 89.2477 59.1927 96.0825 58.5301C97.9132 58.3558 99.8486 58.2163 101.836 58.1291C108.803 57.6579 115.793 57.6579 122.759 58.1291C125.043 58.3209 127.397 58.5999 129.646 58.8788C137.789 59.8901 144.205 66.6203 144.449 74.2571Z" fill="white"/>
<path opacity="0.2" d="M97.5471 81.1268C98.3143 89.0252 94.862 96.9236 93.3277 99.9574C92.9925 95.5121 92.3458 91.0958 91.3923 86.7411L97.5471 81.1268Z" fill="black"/>
<path d="M117.266 68.2942C117.266 68.2942 119.795 75.1638 120.126 92.3554C120.126 92.8178 120.31 93.2614 120.636 93.5883C120.963 93.9153 121.407 94.099 121.869 94.099C122.332 94.099 122.775 93.9153 123.102 93.5883C123.429 93.2614 123.613 92.8178 123.613 92.3554C123.494 84.2885 122.742 76.2434 121.364 68.2942L119.847 69.7762L117.266 68.2942Z" fill="#9A7ED9"/>
<path opacity="0.8" d="M117.266 68.2942C117.266 68.2942 119.795 75.1638 120.126 92.3554C120.126 92.8178 120.31 93.2614 120.636 93.5883C120.963 93.9153 121.407 94.099 121.869 94.099C122.332 94.099 122.775 93.9153 123.102 93.5883C123.429 93.2614 123.613 92.8178 123.613 92.3554C123.494 84.2885 122.742 76.2434 121.364 68.2942L119.847 69.7762L117.266 68.2942Z" fill="white"/>
<g opacity="0.5">
<path d="M141.956 79.4705C141.389 74.7321 139.864 70.1584 137.475 66.0275C137.344 65.8154 137.293 65.5637 137.332 65.3176C137.37 65.0715 137.495 64.8472 137.684 64.6849C137.795 64.5886 137.925 64.5171 138.065 64.4751C138.206 64.4331 138.353 64.4216 138.499 64.4414C138.644 64.4612 138.783 64.5118 138.908 64.5899C139.032 64.668 139.138 64.7718 139.218 64.8942C141.756 69.2777 143.381 74.129 143.996 79.1566C144.018 79.2919 144.013 79.4302 143.981 79.5636C143.949 79.6969 143.891 79.8225 143.809 79.9329C143.728 80.0434 143.626 80.1365 143.508 80.2068C143.39 80.2771 143.26 80.3231 143.124 80.3422C142.99 80.362 142.853 80.355 142.722 80.3219C142.591 80.2887 142.467 80.2299 142.359 80.1489C142.25 80.0679 142.159 79.9663 142.09 79.8499C142.021 79.7335 141.975 79.6045 141.956 79.4705Z" fill="white"/>
</g>
<path d="M94.652 130.784C94.652 130.784 73.7291 141.245 76.8501 228.424C76.8501 228.424 108.792 237.7 149.662 225.338C149.662 225.338 145.721 159.535 141.083 129.929L94.652 130.784Z" fill="#9A7ED9"/>
<path d="M140.962 132.841C125.206 134.567 109.31 134.567 93.5541 132.841C93.3919 132.817 93.2373 132.757 93.1025 132.663C92.9676 132.57 92.8562 132.447 92.7769 132.303C92.6975 132.16 92.6524 132 92.6451 131.836C92.6378 131.672 92.6684 131.509 92.7347 131.359L93.8854 128.709C93.966 128.511 94.1072 128.343 94.2889 128.231C94.4706 128.118 94.6834 128.065 94.8967 128.081C110.051 129.72 125.337 129.72 140.491 128.081C140.761 128.062 141.028 128.15 141.234 128.326C141.439 128.503 141.567 128.753 141.59 129.023C141.694 129.947 141.781 130.766 141.868 131.778C141.879 132.036 141.792 132.29 141.624 132.487C141.455 132.684 141.219 132.811 140.962 132.841Z" fill="#263238"/>
<path opacity="0.2" d="M119.986 176.954H119.812L111.913 231.702C118.231 231.474 124.527 230.833 130.761 229.784C117.998 223.123 119.393 186.561 119.986 176.954Z" fill="black"/>
<path d="M117.51 44.7908C117.04 56.6471 123.7 58.0942 123.7 58.0942C123.7 58.0942 122.131 69.3403 119.864 69.7762C117.598 70.2121 103.719 57.2399 103.719 57.2399C106.474 51.1374 104.747 39.5426 104.747 39.5426L117.51 44.7908Z" fill="#B55B52"/>
<path d="M125.131 135.404H119.272V134.027H125.131C125.285 134.022 125.431 133.958 125.539 133.847C125.646 133.736 125.706 133.588 125.706 133.434V129.825C125.706 129.67 125.646 129.522 125.539 129.412C125.431 129.301 125.285 129.236 125.131 129.232H119.272V127.889H125.131C125.649 127.889 126.145 128.095 126.511 128.461C126.878 128.828 127.083 129.324 127.083 129.842V133.451C127.079 133.968 126.872 134.462 126.506 134.827C126.141 135.192 125.647 135.4 125.131 135.404Z" fill="#263238"/>
<g opacity="0.6">
<path d="M125.131 135.404H119.272V134.027H125.131C125.285 134.022 125.431 133.958 125.539 133.847C125.646 133.736 125.706 133.588 125.706 133.434V129.825C125.706 129.67 125.646 129.522 125.539 129.412C125.431 129.301 125.285 129.236 125.131 129.232H119.272V127.889H125.131C125.649 127.889 126.145 128.095 126.511 128.461C126.878 128.828 127.083 129.324 127.083 129.842V133.451C127.079 133.968 126.872 134.462 126.506 134.827C126.141 135.192 125.647 135.4 125.131 135.404Z" fill="white"/>
</g>
<path opacity="0.2" d="M117.511 44.7908L105.881 40.0134C106.579 41.3734 111.112 49.3938 117.72 49.2892C117.51 47.7995 117.44 46.2935 117.511 44.7908Z" fill="black"/>
<path d="M100.947 3.93891C100.947 3.93891 119.342 -5.61588 128.844 5.03734C138.347 15.6906 107.485 19.2126 106.928 30.4935C106.37 41.7744 101.191 44.1108 94.2169 32.7253C87.2426 21.3397 93.6066 5.08966 100.947 3.93891Z" fill="#263238"/>
<path d="M97.5469 21.0608C99.6043 31.9407 100.232 36.5786 106.439 41.7918C115.767 49.6379 128.6 45.4882 129.82 34.3991C130.919 24.4259 127.397 8.24554 116.186 4.7584C113.809 3.90803 111.248 3.7078 108.768 4.17841C106.288 4.64902 103.978 5.77338 102.078 7.43532C100.178 9.09725 98.7563 11.2365 97.9597 13.6318C97.1631 16.0272 97.0206 18.5919 97.5469 21.0608Z" fill="#B55B52"/>
<path d="M114.773 22.8741C114.913 23.7982 115.488 24.513 116.081 24.4607C116.674 24.4084 117.04 23.6412 116.918 22.7172C116.796 21.7931 116.203 21.0957 115.61 21.1305C115.018 21.1654 114.651 21.9674 114.773 22.8741Z" fill="#263238"/>
<path d="M125.88 22.229C126.019 23.1531 126.595 23.8505 127.188 23.8156C127.78 23.7808 128.147 22.9962 128.024 22.0721C127.902 21.148 127.31 20.4331 126.717 20.4854C126.124 20.5377 125.758 21.3049 125.88 22.229Z" fill="#263238"/>
<path d="M126.456 20.5552L128.53 19.7531C128.53 19.7531 127.676 21.5316 126.456 20.5552Z" fill="#263238"/>
<path d="M123.003 23.9551C124.116 26.0003 125.481 27.8982 127.065 29.6043C126.644 29.9732 126.143 30.2406 125.602 30.3856C125.061 30.5307 124.494 30.5497 123.944 30.4412L123.003 23.9551Z" fill="#A02724"/>
<path d="M119.254 34.2247C119.759 34.2688 120.267 34.2688 120.771 34.2247C120.807 34.223 120.842 34.2136 120.873 34.1971C120.904 34.1806 120.932 34.1574 120.954 34.1292C120.975 34.101 120.99 34.0684 120.998 34.0337C121.006 33.999 121.006 33.963 120.998 33.9283C120.996 33.8923 120.986 33.8572 120.97 33.825C120.954 33.7929 120.931 33.7644 120.903 33.7415C120.875 33.7186 120.843 33.7017 120.808 33.6918C120.774 33.6819 120.737 33.6794 120.702 33.6842C119.549 33.7693 118.392 33.5959 117.315 33.1766C116.238 32.7573 115.269 32.1027 114.477 31.2607C114.425 31.2116 114.357 31.1843 114.285 31.1843C114.214 31.1843 114.145 31.2116 114.093 31.2607C114.044 31.3125 114.017 31.3811 114.017 31.4525C114.017 31.5238 114.044 31.5925 114.093 31.6443C115.438 33.1095 117.275 34.0282 119.254 34.2247Z" fill="#263238"/>
<path d="M111.67 17.9398C111.743 17.9425 111.815 17.9282 111.882 17.8979C111.949 17.8676 112.007 17.8223 112.053 17.7654C112.483 17.2766 113.024 16.8991 113.632 16.6653C114.239 16.4315 114.894 16.3483 115.54 16.4229C115.607 16.438 115.676 16.4389 115.743 16.4256C115.811 16.4123 115.874 16.3851 115.93 16.3456C115.986 16.3062 116.033 16.2554 116.068 16.1966C116.103 16.1378 116.125 16.0723 116.133 16.0044C116.15 15.86 116.113 15.7145 116.029 15.5955C115.946 15.4766 115.821 15.3925 115.68 15.3593C114.854 15.2383 114.011 15.3266 113.228 15.6159C112.445 15.9053 111.748 16.3866 111.199 17.0157C111.101 17.1193 111.046 17.2566 111.046 17.3993C111.046 17.542 111.101 17.6792 111.199 17.7829C111.258 17.8459 111.332 17.8933 111.415 17.9207C111.497 17.9481 111.584 17.9546 111.67 17.9398Z" fill="#263238"/>
<path d="M128.338 16.9459C128.477 16.9512 128.612 16.9081 128.722 16.8239C128.773 16.7737 128.813 16.7139 128.84 16.6481C128.868 16.5822 128.882 16.5116 128.882 16.4403C128.882 16.369 128.868 16.2984 128.84 16.2326C128.813 16.1667 128.773 16.107 128.722 16.0567C128.165 15.3839 127.459 14.8496 126.66 14.4956C125.862 14.1416 124.992 13.9777 124.119 14.0168C124.05 14.0225 123.982 14.0432 123.921 14.0772C123.86 14.1112 123.808 14.1579 123.766 14.2141C123.725 14.2702 123.696 14.3346 123.682 14.4028C123.667 14.471 123.668 14.5415 123.683 14.6096C123.709 14.7529 123.788 14.8812 123.904 14.9685C124.021 15.0559 124.166 15.0958 124.311 15.0803C125.009 15.0722 125.699 15.2252 126.328 15.5277C126.957 15.8301 127.508 16.2737 127.937 16.8239C128.055 16.9058 128.195 16.9485 128.338 16.9459Z" fill="#263238"/>
<path d="M115.349 21.2003L117.424 20.4157C117.424 20.4157 116.569 22.2115 115.349 21.2003Z" fill="#263238"/>
<path d="M102.08 31.1909C102.08 31.1909 107.101 33.876 105.567 15.1675C105.567 15.1675 109.054 15.1675 127.449 11.6804C127.449 11.6804 120.073 -3.08767 102.027 5.4907C102.08 5.54301 84.522 16.789 102.08 31.1909Z" fill="#263238"/>
<path d="M96.5006 31.5571C96.9462 32.5162 97.5874 33.3715 98.3831 34.0682C99.1789 34.7648 100.111 35.2873 101.121 35.6022C103.649 36.2822 104.748 33.3704 103.911 30.4761C103.144 27.8607 100.912 24.3736 98.4534 25.0013C95.995 25.6289 95.2104 29.0115 96.5006 31.5571Z" fill="#B55B52"/>
<path d="M103.545 56.403C103.545 56.403 113.85 61.0757 119.656 68.9393C121.027 65.0869 122.048 61.1188 122.707 57.083L126.456 58.164C128.102 59.0478 129.401 60.4626 130.142 62.1783C130.883 63.8939 131.021 65.8096 130.536 67.6141C128.562 67.2905 126.539 67.4568 124.645 68.0983C122.751 68.7398 121.044 69.8369 119.673 71.2931C119.673 71.2931 108.793 62.3485 104.208 69.7936C104.208 69.7936 105.236 63.848 99.3257 58.286L103.545 56.403Z" fill="#9A7ED9"/>
<path opacity="0.9" d="M103.545 56.403C103.545 56.403 113.85 61.0757 119.656 68.9393C121.027 65.0869 122.048 61.1188 122.707 57.083L126.456 58.164C128.102 59.0478 129.401 60.4626 130.142 62.1783C130.883 63.8939 131.021 65.8096 130.536 67.6141C128.562 67.2905 126.539 67.4568 124.645 68.0983C122.751 68.7398 121.044 69.8369 119.673 71.2931C119.673 71.2931 108.793 62.3485 104.208 69.7936C104.208 69.7936 105.236 63.848 99.3257 58.286L103.545 56.403Z" fill="white"/>
<path d="M79.7102 162.97C69.458 168.55 40.7762 164.574 33.6276 155.333C24.9097 143.983 37.9168 107.891 50.1044 100.289C58.8222 94.8488 84.8537 98.5451 90.7121 107.001C98.8372 118.718 92.229 156.135 79.7102 162.97Z" fill="#9A7ED9"/>
<path opacity="0.2" d="M79.7102 162.97C69.458 168.55 40.7762 164.574 33.6276 155.333C24.9097 143.983 37.9168 107.891 50.1044 100.289C58.8222 94.8488 84.8537 98.5451 90.7121 107.001C98.8372 118.718 92.229 156.135 79.7102 162.97Z" fill="black"/>
<path opacity="0.3" d="M50.104 100.289C47.6561 101.964 45.5298 104.067 43.8272 106.496C43.2465 107.267 42.8694 108.172 42.7305 109.128C42.5916 110.084 42.6954 111.059 43.0323 111.964C43.3693 112.868 43.9285 113.674 44.6585 114.306C45.3885 114.938 46.2659 115.376 47.2097 115.58H47.3143L58.386 117.411C61.1007 117.843 63.8821 117.509 66.4172 116.446C68.9524 115.383 71.1406 113.634 72.7356 111.395C74.5203 108.984 76.9138 107.09 79.6711 105.907C82.4283 104.724 85.4503 104.296 88.4277 104.665C79.954 97.9174 57.985 95.3718 50.104 100.289Z" fill="white"/>
<path d="M49.8776 113.174C47.7964 117.72 46.2348 122.487 45.2223 127.384C45.1437 127.746 45.1384 128.12 45.2069 128.484C45.2754 128.849 45.4162 129.195 45.621 129.504C45.8258 129.813 46.0905 130.078 46.3994 130.282C46.7082 130.487 47.055 130.628 47.4192 130.697C48.1205 130.821 48.8428 130.669 49.4345 130.272C50.0261 129.876 50.4412 129.265 50.5925 128.569C51.5229 124.078 52.9497 119.704 54.8468 115.528C55.031 115.143 55.1233 114.721 55.1167 114.295C55.11 113.868 55.0045 113.449 54.8084 113.071C54.6124 112.692 54.3311 112.364 53.9868 112.113C53.6425 111.862 53.2446 111.693 52.8243 111.622C52.2313 111.527 51.6234 111.626 51.092 111.906C50.5606 112.186 50.1344 112.631 49.8776 113.174Z" fill="#263238"/>
<path opacity="0.3" d="M38.876 134.079L58.5958 138.194C59.4874 138.376 60.2726 138.898 60.784 139.651C61.2955 140.403 61.4926 141.326 61.3332 142.222L59.7989 151.585C59.6059 152.753 59.1702 153.867 58.5201 154.856C57.87 155.846 57.0198 156.688 56.0244 157.328C55.0289 157.969 53.9102 158.394 52.7405 158.576C51.5707 158.758 50.3759 158.693 49.2329 158.384L38.7714 155.595C36.6409 155.027 34.8155 153.652 33.6826 151.761C32.5497 149.869 32.1986 147.611 32.7038 145.465L34.7612 136.747C34.9578 135.85 35.5001 135.067 36.2705 134.567C37.0409 134.068 37.9771 133.893 38.876 134.079Z" fill="white"/>
<path opacity="0.2" d="M90.8513 107.246C75.1591 103.514 66.6331 125.187 63.5121 147.975C62.0823 158.437 64.471 163.301 67.7141 165.498C71.8496 165.545 75.9449 164.682 79.7098 162.97C92.1589 156.17 98.6973 119.172 90.8513 107.246Z" fill="black"/>
<path d="M99.1339 57.763C99.1339 57.763 112.001 77.7094 110.258 109.913C108.636 139.746 76.4501 160.285 76.4501 160.285L71.6204 157.704C71.6204 157.704 106.579 136.241 106.126 103.793C105.672 71.3454 96.5534 57.9199 96.5534 57.9199L99.1339 57.763Z" fill="#263238"/>
<path d="M108.357 108.466C105.724 108.588 102.969 108.745 100.302 108.762C97.6338 108.78 94.9836 108.762 92.4031 108.762C90.0012 108.68 87.613 108.364 85.2719 107.821C84.9058 107.734 84.5745 107.612 84.2607 107.507C85.5683 102.573 87.1899 97.6559 89.0032 92.7739C90.0319 90.0365 91.078 87.2991 92.1765 84.5791C93.2749 81.8591 94.4605 79.1043 95.559 76.5412V76.4192C95.9024 75.6808 96.0971 74.8819 96.1318 74.0683C96.1665 73.2546 96.0407 72.4421 95.7614 71.6771C95.4821 70.9121 95.0549 70.2096 94.5041 69.6097C93.9533 69.0098 93.2898 68.5243 92.5513 68.1808C91.8129 67.8374 91.0141 67.6427 90.2004 67.608C89.3868 67.5733 88.5742 67.6991 87.8092 67.9784C87.0442 68.2577 86.3417 68.6849 85.7419 69.2357C85.142 69.7865 84.6564 70.45 84.313 71.1885C82.8658 74.1351 81.7325 76.9423 80.5468 79.9064C79.3612 82.8704 78.3325 85.7299 77.3561 88.7114C76.3797 91.6929 75.5079 94.7093 74.7233 97.7605C73.9387 100.812 73.2936 103.95 72.7531 107.106V107.35C72.7259 107.663 72.7259 107.978 72.7531 108.292C72.8073 110.045 73.3641 111.745 74.3572 113.191C75.2148 114.411 76.3349 115.424 77.6351 116.155C79.4203 117.077 81.3579 117.668 83.354 117.899C86.4531 118.255 89.583 118.255 92.6821 117.899C95.5633 117.611 98.4269 117.169 101.26 116.574C104.068 115.946 106.788 115.301 109.56 114.412C110.266 114.179 110.865 113.699 111.246 113.06C111.627 112.421 111.764 111.666 111.632 110.934C111.501 110.202 111.109 109.542 110.53 109.076C109.95 108.61 109.222 108.368 108.479 108.396L108.357 108.466Z" fill="#B55B52"/>
<path d="M114.617 101.091H111.129C110.488 101.098 109.859 101.261 109.294 101.564C108.729 101.868 108.246 102.304 107.886 102.834L104.399 107.786C103.719 108.763 103.281 109.887 103.12 111.066C102.959 112.245 103.081 113.446 103.475 114.569L103.981 115.981C109.682 116.33 116.099 112.494 116.099 112.494L118.051 111.622C118.864 111.269 119.504 110.609 119.831 109.785C120.158 108.962 120.145 108.042 119.795 107.228L118.051 103.322C117.747 102.665 117.263 102.107 116.655 101.712C116.048 101.318 115.341 101.102 114.617 101.091Z" fill="#B55B52"/>
<path d="M95.6638 58.6347C88.149 59.8029 79.745 67.5967 73.6077 82.6786C80.704 94.8836 91.2526 96.54 91.2526 96.54C91.2526 96.54 105.968 76.0879 95.6638 58.6347Z" fill="#9A7ED9"/>
<path opacity="0.4" d="M95.6638 58.6347C88.149 59.8029 79.745 67.5967 73.6077 82.6786C80.704 94.8836 91.2526 96.54 91.2526 96.54C91.2526 96.54 105.968 76.0879 95.6638 58.6347Z" fill="white"/>
<g opacity="0.5">
<path d="M89.9798 93.1226C84.7868 90.6942 80.2138 87.1169 76.6066 82.6612C76.5182 82.5528 76.4528 82.4275 76.4144 82.293C76.3761 82.1585 76.3656 82.0176 76.3835 81.8789C76.4015 81.7402 76.4475 81.6066 76.5188 81.4863C76.5902 81.366 76.6853 81.2614 76.7984 81.1791C77.0096 81.0258 77.2712 80.9586 77.5302 80.9909C77.7892 81.0233 78.0263 81.1529 78.1932 81.3535C81.6212 85.5619 85.9459 88.9515 90.8516 91.2744C91.0992 91.3787 91.2962 91.5757 91.4005 91.8233C91.5047 92.071 91.508 92.3496 91.4095 92.5996C91.3533 92.7306 91.2709 92.8487 91.1674 92.9468C91.0639 93.0448 90.9414 93.1206 90.8075 93.1696C90.6736 93.2186 90.5311 93.2397 90.3888 93.2316C90.2465 93.2235 90.1073 93.1864 89.9798 93.1226Z" fill="white"/>
</g>
<g opacity="0.5">
<path d="M98.6979 79.0694C98.4332 79.0185 98.1991 78.8658 98.0458 78.6441C97.8926 78.4224 97.8325 78.1494 97.8784 77.8838C99.2558 68.7126 96.8148 63.8132 95.7164 62.1917C95.5867 61.9924 95.5314 61.7539 95.5601 61.518C95.5888 61.282 95.6997 61.0637 95.8733 60.9014C95.9806 60.7943 96.1105 60.7126 96.2536 60.6624C96.3966 60.6123 96.5491 60.5949 96.6998 60.6117C96.8505 60.6284 96.9955 60.6788 97.124 60.7591C97.2526 60.8395 97.3614 60.9477 97.4425 61.0757C98.8025 63.1157 101.383 68.4685 99.901 78.2674C99.8463 78.5325 99.6893 78.7653 99.4641 78.9154C99.2389 79.0656 98.9636 79.1209 98.6979 79.0694Z" fill="white"/>
</g>
<path d="M211.898 381.83C328.926 381.83 423.796 376.296 423.796 369.47C423.796 362.643 328.926 357.109 211.898 357.109C94.87 357.109 0 362.643 0 369.47C0 376.296 94.87 381.83 211.898 381.83Z" fill="#F5F5F5" fill-opacity="0.5"/>
</svg>
