<svg xmlns="http://www.w3.org/2000/svg" viewBox="0 0 427.36 413.56"><defs><style>.cls-1{fill:#ebebeb;}.cls-2{fill:#dbdbdb;}.cls-3{fill:#fff;}.cls-4{fill:#c7c7c7;}.cls-5{fill:#263238;}.cls-6{fill:none;}.cls-7{opacity:0.2;}.cls-8,.cls-9{fill:#ffc727;}.cls-8{opacity:0.4;}.cls-10{fill:#455a64;}.cls-11{fill:#a6a6a6;}.cls-12{opacity:0.1;}.cls-13{fill:#37474f;}.cls-14{fill:#ad6359;}</style></defs><g id="Layer_2" data-name="Layer 2"><g id="Background_Complete" data-name="Background Complete"><path class="cls-1" d="M43.7,274.7,30,275l-7,.11c-2.33,0-4.67,0-7,.05h-.44v-.45L15.47,263v-.5H16l13.87.06c4.62,0,9.24.11,13.86.17H44V263c0,2-.09,4-.13,5.92Zm0,0-.14-5.92c0-1.95-.11-3.88-.13-5.8l.27.27c-4.62.05-9.24.16-13.86.16L16,263.48l.5-.5,0,11.72-.45-.45c2.29,0,4.57,0,6.86.06l6.89.11Z"/><path class="cls-1" d="M28.23,289.47l-13.75.28-7,.11c-2.33.05-4.67,0-7,.06H.06v-.45L0,277.76v-.51H.5l13.87.06c4.62,0,9.24.11,13.86.16h.28v.27c0,2-.09,4-.13,5.91Zm0,0-.14-5.91c0-2-.11-3.89-.13-5.8l.27.27c-4.62.05-9.24.16-13.86.16L.5,278.25l.5-.49L1,289.47.5,289c2.29,0,4.57,0,6.86.05l6.89.12Z"/><path class="cls-1" d="M223,128.62l-13.75.28-7,.11c-2.33.05-4.67,0-7,.06h-.44v-.45l-.06-11.72v-.5h.5l13.87.07c4.62,0,9.24.11,13.87.16h.27v.27c0,2-.09,4-.13,5.92Zm0,0-.15-5.92c0-2-.11-3.88-.13-5.8l.28.28c-4.63,0-9.25.15-13.87.16l-13.87.06.5-.5,0,11.72-.45-.44c2.29,0,4.57,0,6.86,0l6.89.11Z"/><path class="cls-1" d="M207.24,143.4l-13.75.28-7,.11c-2.33.05-4.67,0-7,.05h-.45v-.45L179,131.68v-.5h.51l13.86.06c4.62,0,9.25.12,13.87.17h.27v.27c0,2-.08,4-.13,5.92Zm0,0-.14-5.92c0-1.95-.12-3.88-.13-5.8l.27.27c-4.62.05-9.25.16-13.87.17l-13.86.06.5-.5L180,143.4l-.44-.45c2.28,0,4.56,0,6.85.06l6.9.11Z"/><path class="cls-1" d="M427.08,289.47l-13.75.28-7,.11c-2.33.05-4.68,0-7,.06h-.45v-.45l0-11.71v-.51h.5l13.86.06c4.63,0,9.25.11,13.87.16h.28v.27c0,2-.08,4-.13,5.91Zm0,0-.14-5.91c-.05-2-.11-3.89-.13-5.8l.27.27c-4.62.05-9.24.16-13.87.16l-13.86.06.5-.49-.06,11.71-.44-.44c2.28,0,4.56,0,6.86.05l6.89.12Z"/><path class="cls-1" d="M411.61,12.22l-13.75.28-7,.11c-2.33.05-4.68,0-7,.06h-.45v-.45L383.38.5V0h.5l13.86.07c4.63,0,9.25.11,13.87.16h.28V.5c0,2-.08,4-.13,5.92Zm0,0-.14-5.92c-.05-1.95-.11-3.88-.13-5.8l.27.27c-4.62.06-9.24.16-13.87.17L383.88,1l.5-.5-.06,11.72-.44-.44c2.28,0,4.56,0,6.86.05l6.89.11Z"/><path class="cls-1" d="M427.08,27l-13.75.28-7,.11c-2.33.05-4.68,0-7,.05h-.45V27l0-11.72v-.5h.5l13.86.06c4.63,0,9.25.11,13.87.17h.28v.27c0,2-.08,4-.13,5.92Zm0,0-.14-5.92c-.05-1.95-.11-3.88-.13-5.8l.27.27c-4.62,0-9.24.16-13.87.17l-13.86.06.5-.5L399.79,27l-.44-.45c2.28,0,4.56,0,6.86.06l6.89.11Z"/><path class="cls-1" d="M28.23,12.22l-13.75.28-7,.11c-2.33.05-4.67,0-7,.06H.06v-.45L0,.5V0H.5L14.37.07c4.62,0,9.24.11,13.86.16h.28V.5c0,2-.09,4-.13,5.92Zm0,0L28.09,6.3c0-1.95-.11-3.88-.13-5.8l.27.27C23.61.83,19,.93,14.37.94L.5,1,1,.5,1,12.22.5,11.78c2.29,0,4.57,0,6.86.05l6.89.11Z"/><path class="cls-1" d="M191.51,128.62l-13.75.28-7,.11c-2.33.05-4.68,0-7,.06h-.45v-.45l-.05-11.72v-.5h.5l13.86.07c4.63,0,9.25.11,13.87.16h.28v.27c0,2-.08,4-.13,5.92Zm0,0-.14-5.92c-.05-2-.11-3.88-.13-5.8l.27.28c-4.62,0-9.24.15-13.87.16l-13.86.06.5-.5-.06,11.72-.44-.44c2.28,0,4.56,0,6.86,0l6.89.11Z"/><rect class="cls-2" x="30.95" y="121.12" width="47.74" height="47.74" transform="translate(199.8 90.17) rotate(90)"/><rect class="cls-3" x="38.35" y="128.52" width="32.93" height="32.93" transform="translate(199.8 90.17) rotate(90)"/><polygon class="cls-1" points="71.28 128.52 38.35 128.52 38.35 161.45 71.28 128.52"/><rect class="cls-4" x="26.28" y="121.12" width="4.67" height="47.74" transform="translate(57.23 289.98) rotate(180)"/><rect class="cls-2" x="90.04" y="121.12" width="47.74" height="47.74" transform="translate(258.9 31.08) rotate(90)"/><rect class="cls-3" x="97.44" y="128.52" width="32.93" height="32.93" transform="translate(258.9 31.08) rotate(90)"/><polygon class="cls-1" points="120.71 128.52 97.44 128.52 97.44 151.78 120.71 128.52"/><rect class="cls-4" x="85.38" y="121.12" width="4.67" height="47.74" transform="translate(175.42 289.98) rotate(180)"/><rect class="cls-2" x="53.17" y="158.06" width="62.39" height="106.83" transform="translate(295.84 127.12) rotate(90)"/><rect class="cls-3" x="60.88" y="165.86" width="46.96" height="91.23" transform="translate(295.84 127.12) rotate(90)"/><polygon class="cls-1" points="98.55 188 38.74 188 38.74 218.78 98.55 188"/><rect class="cls-4" x="26.28" y="180.28" width="4.67" height="62.39" transform="translate(57.23 422.95) rotate(180)"/><rect class="cls-2" x="30.95" y="3.16" width="106.83" height="106.83" transform="translate(140.93 -27.79) rotate(90)"/><rect class="cls-3" x="38.74" y="10.95" width="91.24" height="91.23"/><path class="cls-1" d="M38.74,76.64C52.61,62.85,91.91,23.74,104.54,11H38.74Z"/><rect class="cls-4" x="26.28" y="3.16" width="4.67" height="106.83" transform="translate(57.23 113.14) rotate(180)"/></g><g id="Shadow"><ellipse class="cls-1" cx="213.79" cy="391.62" rx="202.33" ry="21.95"/></g><g id="Device"><path class="cls-5" d="M397.14,3.16H238.39a16.2,16.2,0,0,0-16.06,16.36V346.33a16.22,16.22,0,0,0,16.06,16.36H397.14a16.23,16.23,0,0,0,16.08-16.36V19.52A16.21,16.21,0,0,0,397.14,3.16Zm6,333.07c0,8.6-6.44,15.56-14.38,15.56h-142c-8,0-14.4-7-14.4-15.56V31.9c0-17.52,6.44-18.38,14.4-18.38h28.45c1.65,0,3,1.88,3,4.21v1c0,5.45,3,5.47,6.65,5.47h65.8c3.7,0,6.66,0,6.66-5.47v-1c0-2.33,1.33-4.21,3-4.21H388.8c7.94,0,14.38,2.33,14.38,18.38Z"/><path class="cls-3" d="M326.74,17.4H308.8a1.11,1.11,0,0,1-1.11-1.11h0a1.11,1.11,0,0,1,1.11-1.11h17.94a1.11,1.11,0,0,1,1.11,1.11h0A1.11,1.11,0,0,1,326.74,17.4Z"/><line class="cls-6" x1="232.36" y1="316.94" x2="231.82" y2="316.94"/><path class="cls-3" d="M403.18,31.9V336.23c0,8.6-6.44,15.56-14.38,15.56h-142c-8,0-14.41-7-14.41-15.56V31.9c0-17.52,6.44-18.38,14.41-18.38h28.44c1.66,0,3,1.88,3,4.21v1c0,5.45,3,5.47,6.66,5.47h65.79c3.7,0,6.66,0,6.66-5.47v-1c0-2.33,1.33-4.21,3-4.21H388.8C396.74,13.52,403.18,15.85,403.18,31.9Z"/><g class="cls-7"><path class="cls-8" d="M400.57,339a37,37,0,0,1-2.31,9,13.72,13.72,0,0,1-9.47,3.85H246.64c-8,0-14.42-7-14.42-15.57v-82a55.39,55.39,0,0,1,20.21-13.17c17.05-6.37,35.52-3.78,45.65,5.14,15,13.2,37.68,48.83,50.56,49.54.88,0,1.9.12,3.05.21,9.33.75,26.6,3.32,38,12.84C397.38,315.17,402.42,324.7,400.57,339Z"/><path class="cls-5" d="M388.79,352.29H246.64c-8.23,0-14.92-7.21-14.92-16.07V259.36l.11-.14a105.8,105.8,0,0,1,8.77-9.8,55,55,0,0,1,11.58-8.8c21.55-12.3,46.78-7.72,57.8,3.58,5.08,5.21,10.85,13.31,16.95,21.89,8.68,12.18,17.64,24.79,25,29.43a11.26,11.26,0,0,0,4.37,1.77c9.43,1.24,22.92,4.16,33.65,11.07,6.46,4.15,11.06,9.26,13.66,15.19l0,.2v12.47a16.62,16.62,0,0,1-5.08,12.09A14.24,14.24,0,0,1,388.79,352.29ZM232.72,259.71v76.51c0,8.31,6.25,15.07,13.92,15.07H388.79a13.24,13.24,0,0,0,9.12-3.71,15.59,15.59,0,0,0,4.77-11.36V323.86c-2.53-5.71-7-10.64-13.24-14.66-10.57-6.81-23.91-9.7-33.24-10.92a12.29,12.29,0,0,1-4.78-1.91c-7.55-4.75-16.57-17.44-25.3-29.7-6.08-8.55-11.83-16.61-16.86-21.77-10.75-11-35.45-15.47-56.58-3.41a54.25,54.25,0,0,0-11.38,8.64A105.53,105.53,0,0,0,232.72,259.71Z"/><path class="cls-8" d="M287.7,43.16c4.34,7,2,15.37-2.56,17.94S272.68,68.79,271.51,72s-8.58,11.13-17.91,6.54S245.31,57.83,249.43,48C254.87,35,275.78,23.87,287.7,43.16Z"/><path class="cls-5" d="M258.21,81.33a13.11,13.11,0,0,1-6.68-1.88c-9.51-5.58-6.84-22-2-31.28,4-7.84,13.48-13.76,22-13.78h0c5.2,0,12.44,2.07,17.55,11.88h0a15.32,15.32,0,0,1,1,11.93,10.63,10.63,0,0,1-5.18,6.38c-6,2.82-12.85,6.75-14,9.3-.9,1.94-4.3,5.45-8.75,6.84A12.85,12.85,0,0,1,258.21,81.33ZM271.5,35.39h0c-8.13,0-17.2,5.71-21.08,13.24-4.81,9.33-6.91,24.94,1.65,30a11.76,11.76,0,0,0,9.79,1.18c4.16-1.31,7.31-4.54,8.13-6.31,1.59-3.42,10.68-8,14.52-9.78a9.66,9.66,0,0,0,4.65-5.8,14.35,14.35,0,0,0-.95-11.15h0C283.28,37.36,276.42,35.39,271.5,35.39Z"/><path class="cls-2" d="M352.89,91.56C334.14,95,325.78,110,331.78,118s26.9,7.88,30.76,19.43,18.25,28.76,33.26,17.15S393,84.09,352.89,91.56Z"/><path class="cls-5" d="M379.36,163.32a15.42,15.42,0,0,1-6.28-1.36c-8.33-3.64-14.47-14.18-16.24-22.7-1.35-6.55-8.51-10.15-15.44-13.62-5.41-2.72-10.52-5.28-12.76-9.15-1.9-3.28-1.77-7.44.34-11.41,3.08-5.77,11-12.25,24.13-13.12l0,.5,0-.5c27.56-1.82,37.8,23.9,40.28,31.83,5,16,2.9,32.12-4.78,36.73A17.86,17.86,0,0,1,379.36,163.32ZM353.18,93c-12.69.84-20.36,7.06-23.31,12.59-2,3.72-2.11,7.42-.36,10.44,2.09,3.61,7.07,6.11,12.34,8.76,7.14,3.58,14.52,7.28,16,14.3,1.72,8.28,7.65,18.49,15.66,22,4.72,2.07,9.64,1.6,14.62-1.39,7.3-4.38,9.21-20,4.33-35.57C390,116.34,380,91.18,353.18,93Z"/></g><g id="u5Zjqx"><path class="cls-4" d="M270.3,20.36l-.27.27c0,.05-.1.11-.16.16a3.66,3.66,0,0,0-2.64-1.1,3.72,3.72,0,0,0-2.66,1.1l-.14-.15-.28-.28h0l.34-.31a4.25,4.25,0,0,1,.81-.51,4,4,0,0,1,1.06-.36l.54-.07h.46l.36,0a3.59,3.59,0,0,1,1,.23,4,4,0,0,1,.66.31,3.54,3.54,0,0,1,.63.44l.29.26Z"/><path class="cls-4" d="M265.45,21.65l-.44-.43a3.15,3.15,0,0,1,4.43,0l-.44.43a2.52,2.52,0,0,0-3.55,0Z"/><path class="cls-4" d="M268.57,22.09l-.44.43a1.28,1.28,0,0,0-.91-.38,1.31,1.31,0,0,0-.91.38l-.43-.43A1.89,1.89,0,0,1,268.57,22.09Z"/><path class="cls-4" d="M267.61,22.91a.38.38,0,0,1-.39.39.39.39,0,0,1-.39-.39.4.4,0,0,1,.39-.39A.39.39,0,0,1,267.61,22.91Z"/></g><path class="cls-4" d="M243.5,21.19a1.13,1.13,0,1,1,2.26,0,1.13,1.13,0,1,1-2.26,0Z"/><path class="cls-4" d="M247.06,21.19a1.14,1.14,0,1,1,1.14,1.13A1.14,1.14,0,0,1,247.06,21.19Z"/><path class="cls-4" d="M250.63,21.19a1.13,1.13,0,1,1,2.26,0,1.13,1.13,0,1,1-2.26,0Z"/><path class="cls-4" d="M254.2,21.19a1.13,1.13,0,1,1,1.13,1.13A1.13,1.13,0,0,1,254.2,21.19Z"/><path class="cls-4" d="M257.76,21.19a1.14,1.14,0,1,1,1.13,1.13A1.14,1.14,0,0,1,257.76,21.19Z"/><path class="cls-4" d="M390.26,23.55h-9V19.5h9Zm-8.75-.25H390V19.75h-8.5Z"/><rect class="cls-4" x="381.92" y="20.12" width="5.94" height="2.82"/><rect class="cls-4" x="390.37" y="20.39" width="0.82" height="2.28"/><path class="cls-2" d="M306.47,316.38a2.54,2.54,0,1,1-2.54-2.53A2.54,2.54,0,0,1,306.47,316.38Z"/><path class="cls-9" d="M321.88,316.38a3.83,3.83,0,1,1-3.83-3.83A3.84,3.84,0,0,1,321.88,316.38Z"/><path class="cls-2" d="M334.7,316.38a2.54,2.54,0,1,1-2.54-2.53A2.54,2.54,0,0,1,334.7,316.38Z"/><path class="cls-9" d="M297.91,145.38V137.9a.7.7,0,0,1,.7-.7.71.71,0,0,1,.71.7v6.77h3.43a.71.71,0,0,1,0,1.41h-4.14A.7.7,0,0,1,297.91,145.38Z"/><path class="cls-9" d="M311.54,138.3a4.67,4.67,0,0,1,0,6.42,4.17,4.17,0,0,1-3,1.36,4.27,4.27,0,0,1-3.1-1.36,4.72,4.72,0,0,1,0-6.42,4.23,4.23,0,0,1,3.1-1.35A4.12,4.12,0,0,1,311.54,138.3Zm-.16,3.21a3.29,3.29,0,0,0-.86-2.22,2.74,2.74,0,0,0-4.06,0,3.25,3.25,0,0,0-.86,2.22,3.2,3.2,0,0,0,.86,2.21,2.72,2.72,0,0,0,4.06,0A3.25,3.25,0,0,0,311.38,141.51Z"/><path class="cls-9" d="M314.93,141.52a4.69,4.69,0,0,1,7.57-3.58.72.72,0,1,1-.88,1.14,3.32,3.32,0,0,0-2-.69,3.12,3.12,0,0,0-2.28.93,3,3,0,0,0,0,4.38,3.12,3.12,0,0,0,2.28.93,3.51,3.51,0,0,0,1.74-.48v-1.74h-1.81a.73.73,0,0,1-.73-.72.71.71,0,0,1,.73-.71h2.52a.71.71,0,0,1,.74.71v2.8a1.43,1.43,0,0,1,0,.22l0,.06h0a.59.59,0,0,1-.24.31,4.69,4.69,0,0,1-2.88,1A4.62,4.62,0,0,1,314.93,141.52Z"/><path class="cls-9" d="M325.74,137.9a.69.69,0,0,1,.7-.7.7.7,0,0,1,.71.7v7.48a.71.71,0,0,1-.71.7.7.7,0,0,1-.7-.7Z"/><path class="cls-9" d="M330.92,145.38a.71.71,0,0,1-.69.7.69.69,0,0,1-.69-.7V138h0a.63.63,0,0,1,.28-.58.69.69,0,0,1,1,.15l4.09,5.67V138a.69.69,0,0,1,.69-.68.7.7,0,0,1,.7.68v7.37a.68.68,0,0,1-1.22.44.19.19,0,0,1-.06-.07l-4.06-5.63Z"/><path class="cls-5" d="M252.16,172.65v-4.14a.38.38,0,0,1,.38-.38h2.3a.39.39,0,0,1,.38.38.4.4,0,0,1-.38.4h-1.9v1.28h1.63a.39.39,0,1,1,0,.78h-1.63v1.29h1.9a.39.39,0,0,1,.38.39.4.4,0,0,1-.38.39h-2.3A.39.39,0,0,1,252.16,172.65Z"/><path class="cls-5" d="M259.17,171v1.68a.38.38,0,0,1-.38.38.38.38,0,0,1-.37-.38V171a.73.73,0,0,0-.73-.7.71.71,0,0,0-.7.72v1.66a.43.43,0,0,1,0,.05v0l0,.05v0a.42.42,0,0,1-.35.23h-.07a.38.38,0,0,1-.3-.37V171h0v-1.09a.37.37,0,0,1,.37-.38.35.35,0,0,1,.33.21,1.54,1.54,0,0,1,.75-.21,1.5,1.5,0,0,0,2.2,0,1.46,1.46,0,0,1,1.46,1.47v1.66a.38.38,0,0,1-.37.38.39.39,0,0,1-.38-.38V171a.72.72,0,0,0-1.43,0Z"/><path class="cls-5" d="M265.86,171.29v1.37a.38.38,0,0,1-.37.38.38.38,0,0,1-.36-.31,1.6,1.6,0,0,1-2.13-.21,1.78,1.78,0,0,1-.47-1.23,1.76,1.76,0,0,1,.47-1.23,1.6,1.6,0,0,1,1.19-.53,1.63,1.63,0,0,1,.94.31.37.37,0,0,1,.36-.31.38.38,0,0,1,.37.38Zm-.74,0a1.06,1.06,0,0,0-.27-.72.88.88,0,0,0-.66-.29.84.84,0,0,0-.65.29,1,1,0,0,0-.26.72,1,1,0,0,0,.26.72.87.87,0,0,0,.65.28.91.91,0,0,0,.66-.28A1.08,1.08,0,0,0,265.12,171.29Z"/><path class="cls-5" d="M268,168.65a.38.38,0,0,1-.38.39.39.39,0,0,1-.38-.39v-.14a.38.38,0,0,1,.38-.38.37.37,0,0,1,.38.38Zm0,1.27v2.74a.37.37,0,0,1-.38.38.38.38,0,0,1-.38-.38v-2.74a.37.37,0,0,1,.38-.38A.37.37,0,0,1,268,169.92Z"/><path class="cls-5" d="M269.49,168.13a.38.38,0,0,1,.39.38v4.14a.39.39,0,0,1-.39.39.4.4,0,0,1-.39-.39v-4.14A.39.39,0,0,1,269.49,168.13Z"/><path class="cls-5" d="M253.8,199.49h-.86V201a.4.4,0,0,1-.4.39.39.39,0,0,1-.38-.39v-4.13a.38.38,0,0,1,.38-.39h1.26a1.5,1.5,0,1,1,0,3Zm-.86-.78h.86a.72.72,0,1,0,0-1.44h-.86Z"/><path class="cls-5" d="M259.13,199.65V201a.38.38,0,0,1-.37.37.39.39,0,0,1-.37-.3,1.57,1.57,0,0,1-.93.3,1.65,1.65,0,0,1-1.19-.51,1.83,1.83,0,0,1-.48-1.24,1.78,1.78,0,0,1,.48-1.23,1.63,1.63,0,0,1,1.19-.53,1.57,1.57,0,0,1,.93.31.4.4,0,0,1,.37-.31.38.38,0,0,1,.37.38Zm-.74,0a1,1,0,0,0-.28-.72.87.87,0,0,0-1.3,0,1,1,0,0,0-.27.72,1.08,1.08,0,0,0,.27.73.92.92,0,0,0,1.3,0A1.08,1.08,0,0,0,258.39,199.65Z"/><path class="cls-5" d="M260.33,200.4a.37.37,0,0,1,.53-.06,1.3,1.3,0,0,0,.77.31,1,1,0,0,0,.48-.13.33.33,0,0,0,.12-.21s0-.05,0-.07,0-.05-.09-.09a1.67,1.67,0,0,0-.56-.2h0a2.52,2.52,0,0,1-.61-.18,1.15,1.15,0,0,1-.48-.4.84.84,0,0,1-.12-.45,1,1,0,0,1,.41-.77,1.59,1.59,0,0,1,.87-.26,1.85,1.85,0,0,1,1.05.39.38.38,0,0,1,.11.52.37.37,0,0,1-.52.1,1.17,1.17,0,0,0-.64-.26.7.7,0,0,0-.42.12c-.1.07-.12.13-.12.16s0,0,0,.06,0,0,.07.07a1.56,1.56,0,0,0,.52.17h0a2.34,2.34,0,0,1,.65.2,1.1,1.1,0,0,1,.5.41,1,1,0,0,1,.13.47,1,1,0,0,1-.44.81,1.63,1.63,0,0,1-.91.28,2.08,2.08,0,0,1-1.25-.48A.39.39,0,0,1,260.33,200.4Z"/><path class="cls-5" d="M263.71,200.4a.37.37,0,0,1,.53-.06,1.27,1.27,0,0,0,.77.31.9.9,0,0,0,.47-.13c.1-.09.13-.16.13-.21a.12.12,0,0,0,0-.07s0-.05-.09-.09a1.67,1.67,0,0,0-.56-.2h0a2.28,2.28,0,0,1-.61-.18,1.09,1.09,0,0,1-.48-.4.84.84,0,0,1-.12-.45,1,1,0,0,1,.41-.77,1.58,1.58,0,0,1,.86-.26,1.8,1.8,0,0,1,1.05.39.39.39,0,0,1,.12.52.37.37,0,0,1-.52.1,1.2,1.2,0,0,0-.65-.26.72.72,0,0,0-.42.12c-.09.07-.11.13-.11.16a.11.11,0,0,0,0,.06.31.31,0,0,0,.08.07,1.41,1.41,0,0,0,.51.17h0a2.34,2.34,0,0,1,.65.2,1.1,1.1,0,0,1,.5.41,1,1,0,0,1,.13.47,1,1,0,0,1-.44.81,1.63,1.63,0,0,1-.91.28,2.08,2.08,0,0,1-1.25-.48A.37.37,0,0,1,263.71,200.4Z"/><path class="cls-5" d="M271.73,198.46l-1.16,2.71s0,0,0,.06h0l0,0h0l-.05,0v0l-.07,0h-.28l-.07,0h0l0,0h0s0,0,0,0h0a.09.09,0,0,1,0-.06l-.51-1.21-.5,1.21a.21.21,0,0,1,0,.06h0l0,0h0l0,0-.06,0h-.3l-.06,0s0,0,0,0l0,0h0l0,0s0,0,0,0l0-.06-1.15-2.71a.37.37,0,0,1,.2-.49.34.34,0,0,1,.46.21l.83,1.89.49-1.17a.39.39,0,0,1,.35-.23.37.37,0,0,1,.34.23l.5,1.17.82-1.89a.35.35,0,0,1,.47-.21A.38.38,0,0,1,271.73,198.46Z"/><path class="cls-5" d="M273.4,200.89a1.78,1.78,0,0,1-.49-1.24,1.8,1.8,0,0,1,.49-1.22,1.63,1.63,0,0,1,1.2-.54,1.53,1.53,0,0,1,1.17.54,1.72,1.72,0,0,1,.5,1.22,1.7,1.7,0,0,1-.5,1.24,1.52,1.52,0,0,1-1.17.53A1.62,1.62,0,0,1,273.4,200.89Zm.28-1.24a1.17,1.17,0,0,0,.25.75,1,1,0,0,0,.67.26,1,1,0,0,0,.65-.26,1.13,1.13,0,0,0,.27-.75,1.09,1.09,0,0,0-.27-.73,1,1,0,0,0-.65-.26,1.05,1.05,0,0,0-.67.26A1.13,1.13,0,0,0,273.68,199.65Z"/><path class="cls-5" d="M279.47,198.27a.38.38,0,0,1-.37.37.68.68,0,0,0-.42.13,1,1,0,0,0-.32.34,2.19,2.19,0,0,0-.29.59V201a.38.38,0,0,1-.76,0v-2.76a.38.38,0,0,1,.76,0v0l.15-.15a1.53,1.53,0,0,1,.88-.27A.36.36,0,0,1,279.47,198.27Z"/><path class="cls-5" d="M283.39,201a.39.39,0,0,1-.38.38.37.37,0,0,1-.37-.3,1.74,1.74,0,1,1-.95-3.21,1.69,1.69,0,0,1,.94.3v-1.32a.38.38,0,0,1,.38-.38.39.39,0,0,1,.38.38v2.78h0Zm-1.7-2.36a.86.86,0,0,0-.66.29,1,1,0,0,0-.28.7,1,1,0,0,0,.28.7.9.9,0,0,0,.66.29.92.92,0,0,0,.66-.29,1,1,0,0,0,.28-.7,1,1,0,0,0-.28-.7A.88.88,0,0,0,281.69,198.66Z"/><polygon class="cls-10" points="251.43 232.22 268.01 232.07 284.6 232.02 317.77 231.92 350.94 232.02 367.53 232.07 384.12 232.22 367.53 232.36 350.94 232.42 317.77 232.51 284.6 232.41 268.01 232.36 251.43 232.22"/><polygon class="cls-1" points="251.43 161.52 268.01 161.38 284.6 161.33 317.77 161.23 350.94 161.33 367.53 161.38 384.12 161.52 367.53 161.67 350.94 161.72 317.77 161.82 284.6 161.72 268.01 161.67 251.43 161.52"/><path class="cls-9" d="M337.3,122.73A37.16,37.16,0,0,1,281.69,100a37.14,37.14,0,1,1,55.61,22.78Z"/><circle class="cls-3" cx="317.76" cy="86.89" r="11.3" transform="translate(-6.07 26.46) rotate(-4.72)"/><path class="cls-3" d="M337.3,118.07v4.66a37.16,37.16,0,0,1-39.07,0v-4.64a19.54,19.54,0,1,1,39.07,0Z"/><path class="cls-10" d="M251.43,280.65q6.8-.16,13.59-.22l13.58-.07,13.59.06q6.8.06,13.58.23-6.79.17-13.58.23L278.6,281,265,280.88Q258.23,280.82,251.43,280.65Z"/><path class="cls-10" d="M329.77,280.65q6.8-.16,13.59-.22l13.58-.07,13.59.06q6.8.06,13.59.23-6.8.17-13.59.23l-13.59.07-13.58-.07Q336.56,280.82,329.77,280.65Z"/><path class="cls-10" d="M314.44,281.91a1.77,1.77,0,0,1-.5-1.25,1.82,1.82,0,0,1,.5-1.25,1.64,1.64,0,0,1,1.22-.55,1.56,1.56,0,0,1,1.19.55,1.74,1.74,0,0,1,.5,1.25,1.69,1.69,0,0,1-.5,1.25,1.55,1.55,0,0,1-1.19.54A1.63,1.63,0,0,1,314.44,281.91Zm.28-1.25a1.12,1.12,0,0,0,.26.75,1,1,0,0,0,.68.27,1,1,0,0,0,.66-.27,1.14,1.14,0,0,0,0-1.5,1,1,0,0,0-1.34,0A1.12,1.12,0,0,0,314.72,280.66Z"/><path class="cls-10" d="M320.63,279.24a.39.39,0,0,1-.38.38.64.64,0,0,0-.43.14,1,1,0,0,0-.33.34,2.06,2.06,0,0,0-.29.6v1.35a.39.39,0,0,1-.39.38.38.38,0,0,1-.38-.38v-2.81a.38.38,0,0,1,.38-.37.39.39,0,0,1,.39.37v.05a1,1,0,0,1,.15-.14,1.51,1.51,0,0,1,.9-.28A.38.38,0,0,1,320.63,279.24Z"/><rect class="cls-10" x="312.03" y="289.92" width="10.5" height="10.5"/><path class="cls-3" d="M315.72,296.31h-1.4V294.7h1.38c0-.12,0-.21,0-.31,0-.42,0-.85,0-1.27a1.78,1.78,0,0,1,1.57-1.7,14.57,14.57,0,0,1,1.75,0v1.46h-.63a3.64,3.64,0,0,0-.57,0,.53.53,0,0,0-.44.51c0,.41,0,.82,0,1.27H319c-.07.52-.12,1-.2,1.5,0,0-.13.1-.2.11h-1.19v4.13h-1.7Z"/><rect class="cls-9" x="283.09" y="245.91" width="68.27" height="21.71"/><path class="cls-3" d="M302.16,259.81v-5.88a.55.55,0,0,1,.55-.55.56.56,0,0,1,.56.55v5.32H306a.56.56,0,0,1,0,1.11h-3.26A.55.55,0,0,1,302.16,259.81Z"/><path class="cls-3" d="M312.88,254.25a3.68,3.68,0,0,1,0,5,3.28,3.28,0,0,1-2.39,1.07,3.37,3.37,0,0,1-2.44-1.07,3.73,3.73,0,0,1,0-5,3.33,3.33,0,0,1,2.44-1.07A3.24,3.24,0,0,1,312.88,254.25Zm-.13,2.52a2.59,2.59,0,0,0-.68-1.75,2.17,2.17,0,0,0-3.19,0,2.54,2.54,0,0,0-.68,1.75,2.48,2.48,0,0,0,.68,1.73,2.13,2.13,0,0,0,3.19,0A2.52,2.52,0,0,0,312.75,256.77Z"/><path class="cls-3" d="M315.54,256.78a3.68,3.68,0,0,1,5.95-2.82.57.57,0,0,1,.11.8.57.57,0,0,1-.8.09,2.59,2.59,0,0,0-1.58-.53,2.43,2.43,0,0,0-1.79.72,2.39,2.39,0,0,0-.75,1.74,2.35,2.35,0,0,0,.75,1.71,2.44,2.44,0,0,0,1.79.73,2.76,2.76,0,0,0,1.37-.38v-1.36h-1.43a.58.58,0,0,1-.57-.57.56.56,0,0,1,.57-.56h2a.56.56,0,0,1,.58.56v2.2a.86.86,0,0,1,0,.17l0,.05h0a.47.47,0,0,1-.19.24,3.68,3.68,0,0,1-5.94-2.8Z"/><path class="cls-3" d="M324,253.93a.54.54,0,0,1,.55-.55.56.56,0,0,1,.56.55v5.88a.56.56,0,0,1-.56.55.54.54,0,0,1-.55-.55Z"/><path class="cls-3" d="M328.11,259.81a.55.55,0,1,1-1.09,0V254h0a.54.54,0,0,1,.22-.46.55.55,0,0,1,.76.12l3.22,4.45V254a.54.54,0,0,1,.54-.54.55.55,0,0,1,.54.54v5.79a.55.55,0,0,1-.54.55.54.54,0,0,1-.41-.2l-.05-.06-3.19-4.43Z"/><rect class="cls-1" x="251.43" y="178.02" width="132.69" height="11.75"/><path class="cls-11" d="M256.5,182.91a.19.19,0,0,1,.2-.2.2.2,0,0,1,.21.2v2.27a1.28,1.28,0,1,0,2.56,0v-2.27a.2.2,0,0,1,.21-.2.2.2,0,0,1,.21.2v2.27a1.7,1.7,0,1,1-3.39,0Z"/><path class="cls-11" d="M261.51,186a.19.19,0,0,1,.28,0,2.26,2.26,0,0,0,1.28.48,1.28,1.28,0,0,0,.79-.25.65.65,0,0,0,.31-.51.61.61,0,0,0-.29-.51,2.07,2.07,0,0,0-.89-.31h0a2.41,2.41,0,0,1-1-.32.88.88,0,0,1-.45-.75A1,1,0,0,1,262,183a1.81,1.81,0,0,1,1-.28,2.17,2.17,0,0,1,1.24.45.2.2,0,1,1-.22.34,1.82,1.82,0,0,0-1-.41,1.22,1.22,0,0,0-.79.24.6.6,0,0,0-.26.47.52.52,0,0,0,.24.42,2,2,0,0,0,.85.29h0a2.86,2.86,0,0,1,1,.34,1,1,0,0,1,.47.85,1.08,1.08,0,0,1-.47.84,1.72,1.72,0,0,1-1,.33,2.5,2.5,0,0,1-1.54-.6A.19.19,0,0,1,261.51,186Z"/><path class="cls-11" d="M265.68,184.81a2,2,0,0,1,4-.16h0v0a.19.19,0,0,1-.21.18h-3.41a1.63,1.63,0,0,0,1.61,1.6,1.56,1.56,0,0,0,1.34-.76.2.2,0,0,1,.27-.06.2.2,0,0,1,.07.28,2,2,0,0,1-1.68.95A2.05,2.05,0,0,1,265.68,184.81Zm.43-.34h3.15a1.6,1.6,0,0,0-1.56-1.35A1.63,1.63,0,0,0,266.11,184.47Z"/><path class="cls-11" d="M271,182.93a.21.21,0,0,1,.22-.21.2.2,0,0,1,.19.21v.92l.06-.11a2,2,0,0,1,1.67-1,.2.2,0,0,1,.2.21.2.2,0,0,1-.2.2,1.51,1.51,0,0,0-1.21.68,3.86,3.86,0,0,0-.5,1,.11.11,0,0,0,0,.07v1.82a.2.2,0,0,1-.19.21.21.21,0,0,1-.22-.21Z"/><path class="cls-11" d="M277.68,184.41a1.28,1.28,0,0,0-1.28-1.28,1.31,1.31,0,0,0-1.3,1.28v2.3a.11.11,0,0,1,0,.09.18.18,0,0,1-.15.08h-.05a.26.26,0,0,1-.14-.11,0,0,0,0,1,0,0,0,0,0,0,0,0,0v-3.8a.21.21,0,0,1,.21-.21.2.2,0,0,1,.19.21v.4a1.69,1.69,0,0,1,3,1.08v2.26a.21.21,0,0,1-.21.21.2.2,0,0,1-.2-.21Z"/><path class="cls-11" d="M283.41,182.92v3.75a.22.22,0,0,1-.21.21.21.21,0,0,1-.2-.21v-.62a1.94,1.94,0,0,1-1.56.83,2.08,2.08,0,0,1,0-4.16,2,2,0,0,1,1.56.81v-.61a.19.19,0,0,1,.2-.2A.2.2,0,0,1,283.41,182.92ZM283,184.8a1.57,1.57,0,1,0-1.56,1.67A1.63,1.63,0,0,0,283,184.8Z"/><path class="cls-11" d="M291.13,184.41a1.31,1.31,0,0,0-1.29-1.29,1.3,1.3,0,0,0-1.28,1.29v2.32h0a.22.22,0,0,1-.1.11.23.23,0,0,1-.11,0h0s0,0-.06,0h0l0,0s0,0,0,0h0a0,0,0,0,0,0,0s0,0,0,0v-2.32a1.28,1.28,0,1,0-2.56,0v2.27a.18.18,0,0,1-.1.16.09.09,0,0,1-.05,0h-.08a.22.22,0,0,1-.17-.15v-3.81a.2.2,0,0,1,.19-.2.2.2,0,0,1,.21.2v.4a1.63,1.63,0,0,1,1.28-.6,1.67,1.67,0,0,1,1.48.89,1.73,1.73,0,0,1,1.5-.89,1.69,1.69,0,0,1,1.69,1.69v2.27a.2.2,0,0,1-.2.2.21.21,0,0,1-.2-.2Z"/><path class="cls-11" d="M293,184.81a2,2,0,0,1,4-.16h0v0a.19.19,0,0,1-.21.18h-3.41a1.64,1.64,0,0,0,1.61,1.6,1.57,1.57,0,0,0,1.35-.76.19.19,0,0,1,.27-.06.22.22,0,0,1,.07.28,2,2,0,0,1-1.69.95A2.05,2.05,0,0,1,293,184.81Zm.43-.34h3.16a1.61,1.61,0,0,0-1.57-1.35A1.63,1.63,0,0,0,293.39,184.47Z"/><path class="cls-11" d="M301.08,180.92a3,3,0,0,1,3,3,3,3,0,0,1-.31,1.36,1.52,1.52,0,0,1-.78.64.52.52,0,0,1-.17,0,.56.56,0,0,1-.48-.23.7.7,0,0,1-.14-.41V185a1.42,1.42,0,0,1-1.09.51,1.6,1.6,0,0,1,0-3.19,1.54,1.54,0,0,1,1.5,1.59v1.36h0a.31.31,0,0,0,.05.18.16.16,0,0,0,.15.06h.07a.86.86,0,0,0,.49-.44,2.37,2.37,0,0,0,.28-1.16,2.56,2.56,0,1,0-2.55,2.56,2.22,2.22,0,0,0,.63-.07.19.19,0,0,1,.24.15.18.18,0,0,1-.14.24,2.92,2.92,0,0,1-.73.1,3,3,0,1,1,0-6Zm0,4.14a1.13,1.13,0,0,0,1.08-1.16,1.15,1.15,0,0,0-1.08-1.18A1.13,1.13,0,0,0,300,183.9,1.11,1.11,0,0,0,301.08,185.06Z"/><path class="cls-11" d="M312.72,184.41a1.31,1.31,0,0,0-1.29-1.29,1.29,1.29,0,0,0-1.28,1.29v2.32h0a.22.22,0,0,1-.1.11.23.23,0,0,1-.11,0h-.06l-.05,0h0l0,0s0,0,0,0h0a0,0,0,0,0,0,0s0,0,0,0v-2.32a1.29,1.29,0,1,0-2.57,0v2.27a.17.17,0,0,1-.09.16.09.09,0,0,1-.05,0h-.09a.25.25,0,0,1-.17-.15v-3.81a.21.21,0,0,1,.2-.2.19.19,0,0,1,.2.2v.4a1.68,1.68,0,0,1,2.77.29,1.73,1.73,0,0,1,1.5-.89,1.69,1.69,0,0,1,1.69,1.69v2.27a.21.21,0,0,1-.21.2.2.2,0,0,1-.19-.2Z"/><path class="cls-11" d="M318.34,182.92v3.75a.21.21,0,0,1-.2.21.22.22,0,0,1-.21-.21v-.62a1.92,1.92,0,0,1-1.56.83,2.08,2.08,0,0,1,0-4.16,1.93,1.93,0,0,1,1.56.81v-.61a.2.2,0,0,1,.21-.2A.19.19,0,0,1,318.34,182.92Zm-.41,1.88a1.57,1.57,0,1,0-1.56,1.67A1.63,1.63,0,0,0,317.93,184.8Z"/><path class="cls-11" d="M320.12,181.56a.2.2,0,0,1,.2-.2.2.2,0,0,1,.21.2v.2a.21.21,0,1,1-.41,0Zm0,1.36a.19.19,0,0,1,.2-.2.2.2,0,0,1,.21.2v3.75a.21.21,0,1,1-.41,0Z"/><path class="cls-11" d="M322.38,181.14a.21.21,0,1,1,.41,0v5.53a.21.21,0,1,1-.41,0Z"/><path class="cls-11" d="M324.77,186a.43.43,0,0,1,0,.85.43.43,0,1,1,0-.85Z"/><path class="cls-11" d="M325.92,184.79a2.09,2.09,0,0,1,2.14-2.07,2.2,2.2,0,0,1,1.33.45.19.19,0,0,1,0,.28.2.2,0,0,1-.28,0,1.68,1.68,0,0,0-1.07-.38,1.68,1.68,0,1,0,0,3.36,1.79,1.79,0,0,0,1.07-.36.2.2,0,1,1,.24.33,2.15,2.15,0,0,1-1.31.44A2.1,2.1,0,0,1,325.92,184.79Z"/><path class="cls-11" d="M332.72,182.72a2.08,2.08,0,1,1-2,2.08A2,2,0,0,1,332.72,182.72Zm0,3.75a1.68,1.68,0,1,0-1.56-1.67A1.63,1.63,0,0,0,332.72,186.47Z"/><path class="cls-11" d="M342.21,184.41a1.29,1.29,0,1,0-2.57,0v2.32h0a.22.22,0,0,1-.1.11l-.1,0h-.06a.09.09,0,0,1-.05,0h0l0,0s0,0,0,0h0a0,0,0,0,0,0,0s0,0,0,0v-2.32a1.28,1.28,0,1,0-2.56,0v2.27a.18.18,0,0,1-.1.16.09.09,0,0,1-.05,0h-.08a.22.22,0,0,1-.17-.15v-3.81a.2.2,0,0,1,.19-.2.2.2,0,0,1,.21.2v.4a1.63,1.63,0,0,1,1.28-.6,1.69,1.69,0,0,0,3,0,1.69,1.69,0,0,1,1.69,1.69v2.27a.2.2,0,0,1-.2.2.21.21,0,0,1-.2-.2Z"/><rect class="cls-1" x="251.43" y="206.39" width="132.69" height="11.75"/><path class="cls-11" d="M257.52,212.44l-.77.53a.27.27,0,0,1-.14.05.18.18,0,0,1-.17-.18.2.2,0,0,1,.12-.16l.87-.42-.87-.41a.19.19,0,0,1-.12-.16.18.18,0,0,1,.17-.18.24.24,0,0,1,.14.05l.77.53-.07-.93a.17.17,0,1,1,.34,0l-.07.93.78-.53a.24.24,0,0,1,.13-.05.17.17,0,0,1,.17.18.17.17,0,0,1-.12.16l-.87.41.87.42a.17.17,0,0,1,.12.16.17.17,0,0,1-.17.18.24.24,0,0,1-.13-.05l-.78-.53.07.93a.17.17,0,1,1-.34,0Z"/><path class="cls-11" d="M261.17,212.44l-.77.53a.24.24,0,0,1-.14.05.18.18,0,0,1-.17-.18.2.2,0,0,1,.12-.16l.88-.42-.88-.41a.19.19,0,0,1-.12-.16.18.18,0,0,1,.17-.18.24.24,0,0,1,.14.05l.77.53-.06-.93a.17.17,0,0,1,.16-.19.17.17,0,0,1,.17.19l-.06.93.77-.53a.27.27,0,0,1,.14-.05.18.18,0,0,1,.17.18.17.17,0,0,1-.12.16l-.88.41.88.42a.17.17,0,0,1,.12.16.18.18,0,0,1-.17.18.27.27,0,0,1-.14-.05l-.77-.53.06.93a.17.17,0,0,1-.17.19.17.17,0,0,1-.16-.19Z"/><path class="cls-11" d="M264.83,212.44l-.77.53a.3.3,0,0,1-.14.05.18.18,0,0,1-.17-.18.2.2,0,0,1,.12-.16l.87-.42-.87-.41a.19.19,0,0,1-.12-.16.18.18,0,0,1,.17-.18.27.27,0,0,1,.14.05l.77.53-.07-.93a.17.17,0,1,1,.34,0l-.07.93.78-.53a.24.24,0,0,1,.13-.05.18.18,0,0,1,.17.18.17.17,0,0,1-.12.16l-.87.41.87.42a.17.17,0,0,1,.12.16.18.18,0,0,1-.17.18.24.24,0,0,1-.13-.05l-.78-.53.07.93a.17.17,0,1,1-.34,0Z"/><path class="cls-11" d="M268.48,212.44l-.77.53a.24.24,0,0,1-.14.05.18.18,0,0,1-.17-.18.2.2,0,0,1,.12-.16l.88-.42-.88-.41c-.06,0-.12-.09-.12-.16a.18.18,0,0,1,.17-.18.24.24,0,0,1,.14.05l.77.53-.06-.93a.17.17,0,0,1,.17-.19.18.18,0,0,1,.17.19l-.07.93.77-.53a.27.27,0,0,1,.14-.05.18.18,0,0,1,.17.18.17.17,0,0,1-.12.16l-.88.41.88.42a.17.17,0,0,1,.12.16.18.18,0,0,1-.17.18.27.27,0,0,1-.14-.05l-.77-.53.07.93a.18.18,0,0,1-.17.19.17.17,0,0,1-.17-.19Z"/><path class="cls-11" d="M272.14,212.44l-.78.53a.24.24,0,0,1-.13.05.18.18,0,0,1-.17-.18.2.2,0,0,1,.12-.16l.87-.42-.87-.41a.19.19,0,0,1-.12-.16.18.18,0,0,1,.17-.18.21.21,0,0,1,.13.05l.78.53-.07-.93a.17.17,0,1,1,.34,0l-.07.93.78-.53a.24.24,0,0,1,.13-.05.18.18,0,0,1,.17.18.17.17,0,0,1-.12.16l-.87.41.87.42a.17.17,0,0,1,.12.16.18.18,0,0,1-.17.18.24.24,0,0,1-.13-.05l-.78-.53.07.93a.17.17,0,1,1-.34,0Z"/><path class="cls-11" d="M275.79,212.44,275,213a.27.27,0,0,1-.14.05.18.18,0,0,1-.17-.18.2.2,0,0,1,.12-.16l.88-.42-.88-.41a.19.19,0,0,1-.12-.16.18.18,0,0,1,.17-.18.24.24,0,0,1,.14.05l.77.53-.07-.93a.18.18,0,0,1,.17-.19.17.17,0,0,1,.17.19l-.06.93.77-.53a.24.24,0,0,1,.14-.05.17.17,0,0,1,.16.18.17.17,0,0,1-.11.16l-.88.41.88.42a.17.17,0,0,1,.11.16.17.17,0,0,1-.16.18.24.24,0,0,1-.14-.05l-.77-.53.06.93a.17.17,0,0,1-.17.19.18.18,0,0,1-.17-.19Z"/><path class="cls-11" d="M279.45,212.44l-.78.53a.24.24,0,0,1-.13.05.17.17,0,0,1-.17-.18.2.2,0,0,1,.12-.16l.87-.42-.87-.41a.19.19,0,0,1-.12-.16.18.18,0,0,1,.17-.18.21.21,0,0,1,.13.05l.78.53-.07-.93a.17.17,0,1,1,.34,0l-.07.93.77-.53a.3.3,0,0,1,.14-.05.18.18,0,0,1,.17.18.17.17,0,0,1-.12.16l-.87.41.87.42a.17.17,0,0,1,.12.16.18.18,0,0,1-.17.18.3.3,0,0,1-.14-.05l-.77-.53.07.93a.17.17,0,1,1-.34,0Z"/><path class="cls-11" d="M283.1,212.44l-.77.53a.27.27,0,0,1-.14.05.18.18,0,0,1-.17-.18.2.2,0,0,1,.12-.16l.88-.42-.88-.41a.19.19,0,0,1-.12-.16.18.18,0,0,1,.17-.18.24.24,0,0,1,.14.05l.77.53-.07-.93a.18.18,0,0,1,.17-.19.17.17,0,0,1,.17.19l-.06.93.77-.53a.24.24,0,0,1,.14-.05.17.17,0,0,1,.16.18.17.17,0,0,1-.11.16l-.88.41.88.42a.17.17,0,0,1,.11.16.17.17,0,0,1-.16.18.24.24,0,0,1-.14-.05l-.77-.53.06.93a.17.17,0,0,1-.17.19.18.18,0,0,1-.17-.19Z"/></g><g id="Table"><polygon class="cls-5" points="0.5 362.69 53.82 362.45 107.15 362.36 213.79 362.19 320.44 362.36 373.76 362.45 427.08 362.69 373.76 362.94 320.44 363.03 213.79 363.19 107.15 363.02 53.82 362.94 0.5 362.69"/></g><g id="Plant"><path class="cls-5" d="M378.48,304.44c14.34,14,16.74,35.75,13.72,54.77-.08.43-.74.32-.74-.09,0-4.33.13-8.62.12-12.9l-.23-.57c-3.74-2.72-7.18-5.8-9.31-10-2.39-4.71-3.34-10-5.17-14.94-.17-.47.33-.33.66-.09,8.72,6.43,11.5,13.36,14,22.6a77.4,77.4,0,0,0-1.52-14.4c-1.88-8.77-5.61-17.47-11.92-24A.27.27,0,0,1,378.48,304.44Z"/><path class="cls-9" d="M375.79,306.08c-2.47.08-4,4-5.94,5.18a1.85,1.85,0,0,1-2.72-.43c-1.9-2.66.71-5.94,3.17-7.77-1.76.72-3.22,2-5.11,2.35a1.79,1.79,0,0,1-2.31-1.38c-.83-3.63,3.71-5.24,6.83-5.32-1.51-1-5.85-3.91-3.54-5.31s7.42,2.67,9.07,4c2.44,2,5.35,4.93,5.46,8C380.84,309.06,377.69,306.84,375.79,306.08Z"/><path class="cls-12" d="M375.79,306.08c-2.47.08-4,4-5.94,5.18a1.85,1.85,0,0,1-2.72-.43c-1.9-2.66.71-5.94,3.17-7.77-1.76.72-3.22,2-5.11,2.35a1.79,1.79,0,0,1-2.31-1.38c-.83-3.63,3.71-5.24,6.83-5.32-1.51-1-5.85-3.91-3.54-5.31s7.42,2.67,9.07,4c2.44,2,5.35,4.93,5.46,8C380.84,309.06,377.69,306.84,375.79,306.08Z"/><path class="cls-9" d="M376.5,306.69c-3.15-1.44-9.21.63-9.73-.57-1-2.42,3.8-4.09,6.41-4.41-2.4-.66-7-1.69-6.87-4,.17-2.83,7.07-.39,10.56,2.29,4.4,3.37,4.37,6.62,3.65,7.28C379.52,308.15,377,306.93,376.5,306.69Z"/><path class="cls-5" d="M411.13,303.05c-14.86,13.48-18.09,35.09-15.79,54.21.06.44.73.34.75-.06.16-4.33.19-8.62.37-12.89l.24-.57c3.84-2.58,7.4-5.52,9.69-9.65,2.57-4.61,3.71-9.88,5.73-14.73.19-.46-.32-.34-.66-.11-8.95,6.09-12,12.9-14.85,22.05A76.43,76.43,0,0,1,398.68,327c2.21-8.7,6.27-17.25,12.82-23.52A.27.27,0,0,0,411.13,303.05Z"/><path class="cls-9" d="M413.76,304.79c2.46.18,3.86,4.18,5.74,5.4a1.85,1.85,0,0,0,2.73-.32c2-2.59-.48-6-2.87-7.89,1.73.79,3.14,2.11,5,2.54a1.77,1.77,0,0,0,2.36-1.29c1-3.59-3.51-5.37-6.63-5.57,1.56-1,6-3.68,3.75-5.17s-7.52,2.39-9.23,3.67c-2.51,1.88-5.53,4.73-5.75,7.81C408.6,307.58,411.84,305.48,413.76,304.79Z"/><path class="cls-12" d="M413.76,304.79c2.46.18,3.86,4.18,5.74,5.4a1.85,1.85,0,0,0,2.73-.32c2-2.59-.48-6-2.87-7.89,1.73.79,3.14,2.11,5,2.54a1.77,1.77,0,0,0,2.36-1.29c1-3.59-3.51-5.37-6.63-5.57,1.56-1,6-3.68,3.75-5.17s-7.52,2.39-9.23,3.67c-2.51,1.88-5.53,4.73-5.75,7.81C408.6,307.58,411.84,305.48,413.76,304.79Z"/><path class="cls-9" d="M413,305.37c3.2-1.31,9.18,1,9.74-.19,1.13-2.39-3.64-4.24-6.24-4.66,2.43-.56,7.08-1.42,7-3.75-.06-2.84-7.05-.66-10.64,1.88-4.53,3.2-4.62,6.46-3.92,7.14C410,306.72,412.5,305.59,413,305.37Z"/><path class="cls-5" d="M395.94,338.66A146,146,0,0,1,391.32,360a.53.53,0,0,1-1-.21c1-6.57,2.76-13,3.73-19.58a98.14,98.14,0,0,0,1.15-20.11c-.63-11.07-3.64-22.84-10.86-31.5-.16-.21.18-.5.34-.31,14.46,16.86,12.16,37.54,12.15,39.39,2-7,4.16-15,11.9-22.09.33-.31.59-.16.54.36-1.39,12.95-5,19.71-12.49,26.63Q396.42,335.63,395.94,338.66Z"/><path class="cls-9" d="M384.17,290.51c-2.6-1.16-6.19,2.16-8.76,2.38a2.14,2.14,0,0,1-2.61-1.81c-.64-3.72,3.72-5.81,7.2-6.47-2.19-.14-4.34.45-6.49-.13a2.06,2.06,0,0,1-1.7-2.6c1-4.18,6.49-3.56,9.76-2.07-1-1.86-4.09-7-1-7.3s6.35,6.51,7.4,8.74c1.53,3.28,3.06,7.81,1.62,11.08C387.92,296.15,385.76,292.25,384.17,290.51Z"/><path class="cls-12" d="M384.17,290.51c-2.6-1.16-6.19,2.16-8.76,2.38a2.14,2.14,0,0,1-2.61-1.81c-.64-3.72,3.72-5.81,7.2-6.47-2.19-.14-4.34.45-6.49-.13a2.06,2.06,0,0,1-1.7-2.6c1-4.18,6.49-3.56,9.76-2.07-1-1.86-4.09-7-1-7.3s6.35,6.51,7.4,8.74c1.53,3.28,3.06,7.81,1.62,11.08C387.92,296.15,385.76,292.25,384.17,290.51Z"/><path class="cls-9" d="M384.61,291.5c-2.55-3.08-9.88-4-9.81-5.48.14-3,6-2.34,8.87-1.36-2.17-1.89-6.43-5.29-5.11-7.62,1.6-2.86,7.54,3.15,9.81,7.68,2.87,5.72,1.2,9.08.12,9.39C387,294.53,385,292,384.61,291.5Z"/><path class="cls-9" d="M405.45,342.55l6.38,48.73H373c.8-4.32,8-48.78,8-48.78Z"/></g><g id="Character"><path class="cls-5" d="M174.11,251.27a1.06,1.06,0,0,1-1,1l-4.33-.17c-2.79-10.45-6.1-18.86-5.34-15.64a51.83,51.83,0,0,1,1.08,15.45l-8.54-.48c-1.47-18-4.37-31.59-4.53-27.52-.66,16.43-2.18,21.57-3.9,27.05-20.61-1.21-47.61-3.1-67.1-4.89-1.21-10-2.06-20.79-2.48-20.09-3.24,5.25-4.81,13.18-5.52,19.34-6.2-.61-11.14-1.21-14.14-1.73,0,0-.58-8.37-.5-11.09a56.69,56.69,0,0,1,4.36-20.36c2.78-6.63,7-12.3,11-18.15a.45.45,0,0,1,.1-.13s0,0,0,0a58.46,58.46,0,0,0,6.52-12.2.23.23,0,0,0,0-.1,56.31,56.31,0,0,0,2.64-9.62c2.18-12,10.08-21.69,21.76-23.68,21.26-13.9,44.12-7.17,49,9,.47,1.57.89,3.36,1.28,5.31v.06c1.45,7.21,2.46,16.46,3.53,23.65,0,0,0,0,0,0a.08.08,0,0,0,0,.08v0a65.89,65.89,0,0,0,1.69,8.35C163.89,207.89,175.5,216.35,174.11,251.27Z"/><path class="cls-5" d="M99,151c-7.86,3.1-13,8.28-15.11,17-1.21,5.06-2.09,10-4.57,14.68s-6.22,8.55-10,12.3c-5.95,6-10.3,12.05-12,20.61s-2.43,19.09-.34,27.6c0,0,.09,0,.08,0-1.53-8.56-.37-20.06,2-28.61,2.64-9.38,8.69-14.83,15-21.51a40.05,40.05,0,0,0,10.2-18.64c1-4.3,1.43-8.84,3.62-12.75C90.53,157,95,154.3,99.46,152A.52.52,0,0,0,99,151Z"/><path class="cls-5" d="M170.86,209.54c-4.53-7.39-9.38-13.8-11.56-22.61-2-8-2.72-16.37-4.75-24.4a.1.1,0,1,0-.2,0c3,14.18,2.33,28.11,10,40.58,4.15,6.78,8.35,13.09,10.73,20.95a67.42,67.42,0,0,1,2.36,25.33c0,.31.36.33.42,0A55.75,55.75,0,0,0,170.86,209.54Z"/><path class="cls-13" d="M226,189.13,198.2,241.46c-1,1.49-.51,3,1.1,3.42L228.09,252a4.8,4.8,0,0,0,4.73-2l27.79-52.34c1-1.49.5-3-1.1-3.42l-28.79-7.08A4.8,4.8,0,0,0,226,189.13Z"/><path class="cls-10" d="M229.41,189.94l-27.79,52.34c-1,1.49-.5,3,1.11,3.42l28.79,7.08a4.78,4.78,0,0,0,4.72-2L264,198.46c1-1.49.51-3-1.1-3.41L234.14,188A4.81,4.81,0,0,0,229.41,189.94Z"/><path class="cls-5" d="M236.68,194.43a2.52,2.52,0,1,1-1.78-3.08A2.52,2.52,0,0,1,236.68,194.43Z"/><path class="cls-14" d="M108.37,261.38c12,37.61,43.32,88.52,58.74,90.74,7.34,1.06,20.24,4.54,31-2.64,23.47-15.68,46.87-47,54.13-65.25,2.72-6.83-32.88-30.24-38.8-25.07-13.87,12.11-31.44,37.13-33.55,36.69-7.83-1.64-35.39-31.45-54.6-52.42C102,218,103.59,246.39,108.37,261.38Z"/><path class="cls-14" d="M260.79,251.28c0-15.16-2.3-19.06,4.53-31.85,4.47-8.39,1-14.85-7.15-9.29-13.37,9.1-17.52,28.66-17,35.85Z"/><path class="cls-14" d="M247.45,293s11.43-18.23,13.06-34.39c1.13-11.17.87-35.75-26.15-55.6-6.41-4.71-18.88-6.87-11.21,4.62,5.46,8.16,11.38,11.69,13.68,17,0,0-16.18-.86-20.65,5.74a148.43,148.43,0,0,0-10.44,18.09,31.14,31.14,0,0,0,3.22,2.26s-4,6.31-1.38,17.38Z"/><path class="cls-14" d="M259.88,247.79c-3.41-4.8-10.8-14.86-19.7-21-9.9-6.8-30.79-17.23-35.73-9.87-3.62,5.39,4,10.07,4,10.07s-9.54-2.49-11.75,3.1c-2,5.09,4.1,8.36,4.1,8.36s-6.05-.51-7,4.76c-1.2,6.35,11.68,6.39,16,13.87C210.76,258.78,259.88,247.79,259.88,247.79Z"/><path class="cls-5" d="M234.74,238.46c-4-4-15.23-10.75-26.07-11.56-.24,0-.39.16-.17.22a117.85,117.85,0,0,1,26.17,11.44C234.73,238.59,234.78,238.51,234.74,238.46Z"/><path class="cls-5" d="M227.58,248.25c-3.75-3.09-15.69-9.54-26.7-10-.25,0-.38.18-.16.24a125.54,125.54,0,0,1,26.8,9.85C227.58,248.38,227.63,248.29,227.58,248.25Z"/><path class="cls-9" d="M125.22,309.44l30.57-38.28s-24.33-26.83-39.88-38c-8.71-6.23-13.67.45-12.44,10.05C107.78,276.85,125.22,309.44,125.22,309.44Z"/><path class="cls-9" d="M125.22,309.44l30.57-38.28s-24.33-26.83-39.88-38c-8.71-6.23-13.67.45-12.44,10.05C107.78,276.85,125.22,309.44,125.22,309.44Z"/><path class="cls-3" d="M146.06,262.56a2.69,2.69,0,1,0,0,5.37,2.69,2.69,0,0,0,0-5.37Zm0,4.91a2.22,2.22,0,1,1,2.21-2.21A2.22,2.22,0,0,1,146.06,267.47Zm-24.71,3.34a2.68,2.68,0,1,0,2.68,2.68A2.68,2.68,0,0,0,121.35,270.81Zm0,4.89a2.22,2.22,0,1,1,2.22-2.21A2.21,2.21,0,0,1,121.35,275.7Zm2-26.32a2.69,2.69,0,1,0,2.68,2.67A2.69,2.69,0,0,0,123.3,249.38Zm0,4.91a2.23,2.23,0,1,1,2.21-2.24A2.23,2.23,0,0,1,123.3,254.29Zm-19.89-16.06c0,.15,0,.3,0,.46a2.22,2.22,0,0,1,.07,4.22c0,.11,0,.23,0,.34s0,.08,0,.12a2.68,2.68,0,0,0-.08-5.14Zm36.75,52.5a2.68,2.68,0,1,0-2.68,2.87,2.73,2.73,0,0,0,.41,0l.51-.63a2.17,2.17,0,0,1-.92.2,2.23,2.23,0,1,1,2.23-2.23,2.3,2.3,0,0,1-.05.45Z"/><path class="cls-12" d="M152.29,275.52l-27.06,33.93s-17.44-32.59-21.76-66.19c-.85-6.6,1.24-11.81,5.45-12.4Z"/><path class="cls-5" d="M148.69,267.68c-5.19,5.5-18.83,20.83-26.4,31.95,0,.07.19.27.24.21,7.69-8.3,21.82-25.93,26.51-31.86C149.13,267.87,148.79,267.58,148.69,267.68Z"/><path class="cls-9" d="M14,363.29,145.85,363l-7.29-45.32S149,305,147,291.28c-2.17-15-29.28-53.16-31.56-55.3-9.18-8.62-18.9-10.16-28.23-7.06h0C44.1,256,14,363.29,14,363.29Z"/><path class="cls-3" d="M143.07,345.7a2.22,2.22,0,0,1-3.93-1.41,2.23,2.23,0,0,1,2.23-2.24,2.14,2.14,0,0,1,1.17.34l-.09-.57a2.58,2.58,0,0,0-1.08-.23,2.69,2.69,0,1,0,1.79,4.69Zm-26.61-13.85a2.69,2.69,0,1,0,2.68,2.69A2.69,2.69,0,0,0,116.46,331.85Zm0,4.91a2.23,2.23,0,1,1,2.22-2.22A2.23,2.23,0,0,1,116.46,336.76Zm21-48.53a2.69,2.69,0,1,0,2.69,2.68A2.68,2.68,0,0,0,137.48,288.23Zm0,4.91a2.23,2.23,0,1,1,2.23-2.23A2.22,2.22,0,0,1,137.48,293.14Zm-96.64,63a2.69,2.69,0,1,0,0,5.37,2.69,2.69,0,0,0,0-5.37Zm0,4.91a2.22,2.22,0,1,1,2.21-2.21A2.22,2.22,0,0,1,40.84,361Zm27.32-13.73A2.69,2.69,0,1,0,70.83,350,2.69,2.69,0,0,0,68.16,347.28Zm0,4.9A2.22,2.22,0,1,1,70.37,350,2.22,2.22,0,0,1,68.16,352.18ZM47.51,279.41a2.34,2.34,0,0,0-.38,0l-.28.53a2.39,2.39,0,0,1,.66-.1,2.22,2.22,0,1,1-2.1,2.89l-.28.55a2.68,2.68,0,1,0,2.38-3.9ZM55.06,300a2.68,2.68,0,1,0,2.67,2.67A2.68,2.68,0,0,0,55.06,300Zm0,4.89a2.22,2.22,0,1,1,2.21-2.22A2.23,2.23,0,0,1,55.06,304.84Zm22.07-60.7a2.69,2.69,0,0,0,0,5.37,2.69,2.69,0,1,0,0-5.37Zm0,4.91a2.23,2.23,0,1,1,2.24-2.23A2.23,2.23,0,0,1,77.13,249.05Zm2.69,41.63a2.69,2.69,0,1,0,2.69,2.68A2.68,2.68,0,0,0,79.82,290.68Zm0,4.91a2.22,2.22,0,1,1,2.23-2.23A2.22,2.22,0,0,1,79.82,295.59Zm22.89-57.46a2.68,2.68,0,1,0,2.67,2.69A2.69,2.69,0,0,0,102.71,238.13Zm0,4.9a2.22,2.22,0,1,1,2.21-2.21A2.22,2.22,0,0,1,102.71,243Zm20.59,6.35a2.69,2.69,0,1,0,2.68,2.67A2.69,2.69,0,0,0,123.3,249.38Zm0,4.91a2.23,2.23,0,1,1,2.21-2.24A2.23,2.23,0,0,1,123.3,254.29Zm-9,99.13a2.69,2.69,0,1,0,2.68,2.68A2.68,2.68,0,0,0,114.25,353.42Zm0,4.91a2.23,2.23,0,1,1,2.21-2.23A2.22,2.22,0,0,1,114.25,358.33Zm-24.52-22.4a2.68,2.68,0,1,0,2.67,2.67A2.68,2.68,0,0,0,89.73,335.93Zm0,4.89a2.22,2.22,0,1,1,2.21-2.22A2.23,2.23,0,0,1,89.73,340.82Zm29-37.16a2.69,2.69,0,1,0,2.67,2.67A2.68,2.68,0,0,0,118.68,303.66Zm0,4.9a2.22,2.22,0,1,1,2.21-2.23A2.22,2.22,0,0,1,118.68,308.56Zm2.67-37.75a2.68,2.68,0,1,0,2.68,2.68A2.68,2.68,0,0,0,121.35,270.81Zm0,4.89a2.22,2.22,0,1,1,2.22-2.21A2.21,2.21,0,0,1,121.35,275.7Zm18.58,38.77a2.68,2.68,0,0,0-1.06,5.13l-.09-.57a2.21,2.21,0,0,1,1.15-4.1,1.9,1.9,0,0,1,.54.07l.26-.41A2.63,2.63,0,0,0,139.93,314.47Zm-35-28.69a2.69,2.69,0,1,0,2.68,2.69A2.7,2.7,0,0,0,104.94,285.78Zm0,4.9a2.22,2.22,0,1,1,2.21-2.21A2.22,2.22,0,0,1,104.94,290.68ZM36.07,314.47a2.68,2.68,0,1,0,2.68,2.67A2.68,2.68,0,0,0,36.07,314.47Zm0,4.89a2.22,2.22,0,1,1,2.21-2.22A2.22,2.22,0,0,1,36.07,319.36Zm53.66,41.2a2.68,2.68,0,0,0-2.68,2.56h.47a2.22,2.22,0,0,1,2.21-2.1,2.2,2.2,0,0,1,2.2,2.09h.47A2.68,2.68,0,0,0,89.73,360.56ZM69,318.64a2.68,2.68,0,1,0,2.68,2.67A2.68,2.68,0,0,0,69,318.64Zm0,4.89a2.22,2.22,0,1,1,2.22-2.22A2.21,2.21,0,0,1,69,323.53Zm1.33-54.08a2.68,2.68,0,1,0,2.7,2.68A2.68,2.68,0,0,0,70.35,269.45Zm0,4.89a2.22,2.22,0,0,1,0-4.43,2.22,2.22,0,1,1,0,4.43ZM22.78,337.66a2.76,2.76,0,0,0-.51,0l-.18.52a2.26,2.26,0,0,1,.69-.11,2.23,2.23,0,1,1,0,4.45,2.19,2.19,0,0,1-1.85-1l-.18.52a2.66,2.66,0,0,0,2,.95,2.69,2.69,0,1,0,0-5.37ZM52,333.22a2.69,2.69,0,1,0,2.69,2.67A2.68,2.68,0,0,0,52,333.22Zm0,4.9a2.22,2.22,0,1,1,2.23-2.23A2.22,2.22,0,0,1,52,338.12Zm42.68-25.87a2.68,2.68,0,1,0,2.67,2.68A2.7,2.7,0,0,0,94.63,312.25Zm0,4.89a2.21,2.21,0,1,1,2.21-2.21A2.22,2.22,0,0,1,94.63,317.14Zm-6.95-88.36a2.15,2.15,0,0,1-1.61.88h0l-.62.43a2.32,2.32,0,0,0,.46,0,2.7,2.7,0,0,0,2.44-1.56C88.12,228.64,87.9,228.7,87.68,228.78ZM96,258.58a2.69,2.69,0,1,0,2.7,2.67A2.68,2.68,0,0,0,96,258.58Zm0,4.91a2.23,2.23,0,1,1,2.24-2.24A2.23,2.23,0,0,1,96,263.49Z"/><path class="cls-5" d="M129.76,254.28c2.55,4.24,5.37,8.34,8,12.52-1.07-3-2.13-5.93-3.31-8.85,0-.05.06-.1.09,0a60.19,60.19,0,0,1,4.56,11,84.06,84.06,0,0,1,5.33,9.84,39.24,39.24,0,0,1,3.57,12.9A33.18,33.18,0,0,1,146.16,305,85.34,85.34,0,0,1,139.48,319c-.33.6-1.17,0-.89-.56,3.74-8,7.87-16.36,7.5-25.4s-4.54-17.17-8.62-24.93a123.72,123.72,0,0,0-8-13.68C129.35,254.27,129.65,254.1,129.76,254.28Z"/><path class="cls-5" d="M117.7,314.19a109.53,109.53,0,0,0-16,2.63c-2.61.67-5.17,1.45-7.72,2.29-1.28.42-2.56.8-3.84,1.17a17.72,17.72,0,0,1-4.13.78.1.1,0,0,0,0,.19,29.35,29.35,0,0,0,4-.07,28.63,28.63,0,0,0,3.78-.72c2.65-.65,5.27-1.42,7.92-2.1,5.33-1.37,10.66-2.74,16.08-3.73C118,314.59,118,314.16,117.7,314.19Z"/><path class="cls-5" d="M131,319a117.12,117.12,0,0,0-13.37-.65c-2.24,0-4.45.19-6.68.4-1.06.1-2.12.23-3.18.36s-2.31.45-3.47.58c-.13,0-.13.21,0,.2,1.1-.09,2.23,0,3.33,0l3.34-.09c2.23-.05,4.45-.08,6.68-.16,4.46-.15,8.9-.25,13.36-.25C131.27,319.33,131.25,319,131,319Z"/><path class="cls-14" d="M71.4,240.8C37.83,276-3.93,349.55,4.33,364.18c9.2,16.29,57.24-33.52,55.72-35.92-1.29-2,15.82-46.61,28-79S79.7,232.1,71.4,240.8Z"/><path class="cls-9" d="M30.26,283l48.21,8.68s12-34.16,14.43-53.13c1.33-10.63-4.91-11.07-12.77-5.42C52.62,252.9,30.26,283,30.26,283Z"/><path class="cls-3" d="M47.51,279.41a2.68,2.68,0,1,0,2.68,2.67A2.68,2.68,0,0,0,47.51,279.41Zm0,4.89a2.22,2.22,0,1,1,2.21-2.22A2.22,2.22,0,0,1,47.51,284.3Zm29.62-40.16a2.69,2.69,0,0,0,0,5.37,2.69,2.69,0,1,0,0-5.37Zm0,4.91a2.23,2.23,0,1,1,2.24-2.23A2.23,2.23,0,0,1,77.13,249.05Zm-21.07,5.62a2.72,2.72,0,0,0-1.17.27h0l-1.24,1.25h0a2.59,2.59,0,0,0-.26,1.15,2.69,2.69,0,1,0,2.68-2.68Zm0,4.91a2.23,2.23,0,1,1,2.23-2.23A2.22,2.22,0,0,1,56.06,259.58Zm21.78,32,.56.1a.39.39,0,0,1,.1-.08l.24-.68A2.48,2.48,0,0,0,77.84,291.57Zm-7.49-22.12a2.68,2.68,0,1,0,2.7,2.68A2.68,2.68,0,0,0,70.35,269.45Zm0,4.89a2.22,2.22,0,0,1,0-4.43,2.22,2.22,0,1,1,0,4.43Zm15.24-44.23.31,0a2.66,2.66,0,0,0,1.55-.5A9.45,9.45,0,0,0,85.59,230.11Z"/><path class="cls-5" d="M78.16,283.78c-7.31-1.95-27.28-6.66-40.66-8-.08,0-.15.29-.07.31,11,2.82,33.18,6.86,40.63,8.17C78.2,284.26,78.29,283.82,78.16,283.78Z"/><path class="cls-5" d="M72.6,290.62c2,.19,4,.43,5.94.7l-.42.24q2.16-7.87,4.75-15.61c1.72-5.16,3.53-10.29,5.61-15.34-1.26,5.3-2.78,10.53-4.39,15.73s-3.37,10.35-5.27,15.45l-.11.32-.3-.07C76.46,291.6,74.53,291.13,72.6,290.62Z"/><path class="cls-5" d="M85.29,271a14.8,14.8,0,0,1,1.64-3,22.11,22.11,0,0,1,2.18-2.71,6,6,0,0,1-.57,1.66,10.65,10.65,0,0,1-.87,1.5A11.43,11.43,0,0,1,85.29,271Z"/><path class="cls-14" d="M5.42,365.68c9.1,9.85,30.13,9.09,83.24,12.15,7.35.43,24.29-50.64,16.46-51.49-9.85-1.08-48.34-3.13-51.17-2.92C30.06,325.15-.76,359,5.42,365.68Z"/><path class="cls-14" d="M94.45,325.39s22.37.32,34.07,4.12c15.67,5.09,27.1,15.94,31.61,20.78,9.43,10.09,25.24,41,17.13,47.11-7.35,5.53-21.91-26.89-21.91-26.89s20.3,30.61,10.24,35.64-24.83-33.57-24.83-33.57,20.16,31.92,9,35.46c-8.46,2.68-23.81-31.52-23.81-31.52s17.14,27.55,8.55,30.68C125,410.66,108.83,380,108.83,380c-23.16,4.28-35.94-3.15-44.4-9.52C62.38,368.92,94.45,325.39,94.45,325.39Z"/><path class="cls-5" d="M149,359.48c2.51,3.51,5.08,7,7.28,10.76s4.26,7.52,6.1,11.43c4.5,9.58,5.83,16.29,5.7,15.88-3-9.58-10.65-23-12.85-26.74s-4.19-7.54-6.38-11.25A.09.09,0,0,1,149,359.48Z"/><path class="cls-5" d="M135.43,367.16c3,4.62,6.18,9.09,9,13.85s5,9.46,7.51,14.37c.19.38-.08.36-.28,0-2.67-4.8-5.5-9-8.22-13.82s-5.25-9.66-8.13-14.32C135.27,367.15,135.38,367.09,135.43,367.16Z"/><path class="cls-5" d="M122.59,371.66c5,6.82,8.68,14.55,12.14,22.22.17.38-.17.32-.37-.06-3.89-7.47-6.9-13.35-12-22C122.27,371.69,122.49,371.51,122.59,371.66Z"/><path class="cls-5" d="M34.29,331.87c3.19-2.6,12.36-8.91,22.16-8.64a.09.09,0,0,1,0,.17c-7.94.91-18.78,6.33-22.09,8.6A.08.08,0,1,1,34.29,331.87Z"/><path class="cls-14" d="M93.84,228.25c.18,2.32,8.62,18.48,18.92,19.58,3.35.35,6.09-17.87,6.09-17.87l.51-1.3,7.11-18.19-19.94-17.61-2.91-2.38S102,195.59,100.05,202c-.09.29-.19.59-.28.91s-.24.69-.33,1c-.31,1-.61,1.92-.9,2.89-.22.74-.44,1.46-.64,2.24s-.42,1.55-.65,2.33C95.22,219.13,93.78,227.27,93.84,228.25Z"/><path class="cls-5" d="M100.05,202a39.2,39.2,0,0,0,19.31,26.69l7.11-18.19-19.94-17.61-2.91-2.38S102,195.59,100.05,202Z"/><path class="cls-14" d="M158.23,188.8c-4.51,34-25.38,35.12-32.7,34.13-6.66-.89-29.19-4.77-28.21-39s18.21-42.92,33.53-41.68S162.75,154.82,158.23,188.8Z"/><path class="cls-5" d="M153.35,185.15a22,22,0,0,1-2.18-.94,3.85,3.85,0,0,1-2-1.39,1.21,1.21,0,0,1,.3-1.45,3,3,0,0,1,3.07-.1,4.4,4.4,0,0,1,2.41,2.1A1.3,1.3,0,0,1,153.35,185.15Z"/><path class="cls-5" d="M130.37,179.32a20.82,20.82,0,0,0,2.37,0,3.79,3.79,0,0,0,2.41-.47,1.22,1.22,0,0,0,.3-1.46,3,3,0,0,0-2.78-1.29,4.43,4.43,0,0,0-3,1A1.3,1.3,0,0,0,130.37,179.32Z"/><path class="cls-5" d="M134,186.79c0-.09-.2.08-.22.17-.34,2.31-1.12,4.9-3.34,5.29-.06,0-.08.13,0,.13C133,192.48,134,189,134,186.79Z"/><path class="cls-5" d="M132.38,184c-3.65-1-5.27,6.41-1.9,7.29S135.43,184.82,132.38,184Z"/><path class="cls-5" d="M130.85,184.09c-.74.27-1.53.87-2.32.78s-1.42-1-1.85-1.9c0-.09-.12,0-.14.05-.33,1.41-.11,3,1.35,3.52s2.61-.53,3.27-1.87C131.29,184.42,131.14,184,130.85,184.09Z"/><path class="cls-5" d="M147.6,188.92c0-.08.15.15.13.24-.6,2.26-.9,5,1,6.18.06,0,0,.15-.05.12C146.24,194.53,146.67,191,147.6,188.92Z"/><path class="cls-5" d="M150.17,187c3.73.56,2.33,8-1.12,7.45S147.05,186.54,150.17,187Z"/><path class="cls-5" d="M151.63,187.79c.51.5,1,1.33,1.64,1.5s1.55-.48,2.22-1.15c.06-.07.11,0,.09.1-.22,1.43-1,2.81-2.38,2.83s-2-1.38-2-2.85C151.15,188,151.42,187.59,151.63,187.79Z"/><path class="cls-5" d="M130.36,206.44c.4.67.74,1.55,1.54,1.83a6.06,6.06,0,0,0,2.58.09.08.08,0,0,1,.06.14,3.12,3.12,0,0,1-3.19.45,2.47,2.47,0,0,1-1.23-2.47C130.12,206.34,130.3,206.34,130.36,206.44Z"/><path class="cls-5" d="M141.64,200.18s-.24,3.51-.58,5.12c0,.15-.43.14-1,.06,0,0,0,0-.06,0a7.82,7.82,0,0,1-6.83-4.42c-.08-.18.16-.3.28-.17a11.81,11.81,0,0,0,6.57,3.46c.21-.42.21-6,.47-6a14.45,14.45,0,0,1,3.49,1.59c.71-7.3.25-14.65,1.07-21.91a.22.22,0,0,1,.44,0c1,7.67.39,16.09-.15,23.64C145.29,202.49,142.23,200.59,141.64,200.18Z"/><path class="cls-5" d="M106.59,147.65c-1.15,2.7-16.61,4.54-23.41-5.89-6.7-10.28,2.17-22.93,14.46-16.9C105.41,128.68,109,142,106.59,147.65Z"/><path class="cls-5" d="M83,127.63a17.18,17.18,0,0,1,10-5.33,10.38,10.38,0,0,1,9.73,3.55c2.45,2.76,3.72,6.49,4.4,10.25a31.81,31.81,0,0,1,.42,5.78,15.8,15.8,0,0,1-.93,5.77,14,14,0,0,0,2-5.67,25.85,25.85,0,0,0,.2-6.09,20.14,20.14,0,0,0-4.44-11.47,11.54,11.54,0,0,0-11.69-3.79A15.18,15.18,0,0,0,83,127.63Z"/><path class="cls-5" d="M99,185.4c6,2.46,11.44-11.35,11.44-11.35s27.7,2.65,35.77-18.31c0,0,.83,15,13,24.94,0,0,5.46-23.9-12.05-33.55,0,0-21-14.74-39,.19S95,183.74,99,185.4Z"/><path class="cls-5" d="M146.74,154.17a24.32,24.32,0,0,1-3.84,9.53,25.27,25.27,0,0,1-7.35,7.36,22.18,22.18,0,0,1-2.27,1.3l-1.15.63c-.4.17-.81.33-1.22.48-.82.3-1.62.64-2.45.91s-1.69.41-2.53.59c-.43.09-.84.2-1.27.28l-1.29.13-2.57.27c-1.72,0-3.44-.06-5.13-.16,1.7-.25,3.39-.33,5.06-.6l2.48-.48,1.23-.23c.41-.11.8-.25,1.2-.37.8-.25,1.6-.5,2.4-.73s1.53-.64,2.3-1l1.14-.49,1.08-.6a21.9,21.9,0,0,0,2.14-1.27,29,29,0,0,0,7.23-6.75,30,30,0,0,0,2.73-4.21A29.21,29.21,0,0,0,146.74,154.17Z"/><path class="cls-9" d="M97.25,162.75l-2.78,2.38,6.83,11.54,6.1-5.43Zm4.69,10.51-5-7.4.63-.57,6.53,6.09Z"/><path class="cls-9" d="M100,157.6l-1.68,3.25L108.94,169l3.61-7.33Zm8.31,8-7.4-5,.37-.76,8.34,3.17Z"/><path class="cls-14" d="M102.37,187.22s-5-12.07-10.3-10.51S88.88,194.62,94,197.93a5.79,5.79,0,0,0,8.25-1.36Z"/><path class="cls-5" d="M92.8,181.38c-.09,0-.13.09-.06.14,3.55,2.45,4.8,6.52,5.4,10.6-.84-1.71-2.24-2.85-4.48-1.9-.12.05-.06.23.06.23a3.59,3.59,0,0,1,3.56,2.07A17.14,17.14,0,0,1,98.42,196c.11.39.78.34.74-.09,0,0,0-.07,0-.1C100.35,190.89,98,183.07,92.8,181.38Z"/></g><g id="Padlock"><path class="cls-4" d="M253.53,48.54v28h-7.91v-28c0-10.64-8.08-19.29-18-19.29s-18,8.65-18,19.29v28h-7.91v-28c0-15.24,11.64-27.63,25.93-27.63S253.53,33.3,253.53,48.54Z"/><polygon class="cls-11" points="201.67 55.81 209.58 56.13 209.58 76.52 201.67 76.52 201.67 55.81"/><polygon class="cls-11" points="253.53 57.93 253.53 76.52 245.63 76.52 245.63 57.6 253.53 57.93"/><rect class="cls-9" x="191.54" y="60.59" width="72.12" height="65.43"/><rect class="cls-12" x="227.6" y="60.59" width="36.06" height="65.43"/><path class="cls-5" d="M230.65,95.7l3,14.32H220.86l3-14.32a6.41,6.41,0,1,1,6.77,0Z"/></g></g></svg>