<!DOCTYPE svg PUBLIC "-//W3C//DTD SVG 1.1//EN" "http://www.w3.org/Graphics/SVG/1.1/DTD/svg11.dtd">
<!-- Uploaded to: SVG Repo, www.svgrepo.com, Transformed by: SVG Repo Mixer Tools -->
<svg fill="#523397" width="800px" height="800px" viewBox="0 0 64 64" style="fill-rule:evenodd;clip-rule:evenodd;stroke-linejoin:round;stroke-miterlimit:2;" version="1.1" xml:space="preserve" xmlns="http://www.w3.org/2000/svg" xmlns:serif="http://www.serif.com/" xmlns:xlink="http://www.w3.org/1999/xlink" stroke="#523397">
<g id="SVGRepo_bgCarrier" stroke-width="0"/>
<g id="SVGRepo_tracerCarrier" stroke-linecap="round" stroke-linejoin="round"/>
<g id="SVGRepo_iconCarrier"> <g id="ICON"> <path d="M59,43l-54,0l0,-8c0,-0.552 -0.448,-1 -1,-1c-0.552,0 -1,0.448 -1,1l0,13c-0,0.796 0.316,1.559 0.879,2.121c0.562,0.563 1.325,0.879 2.121,0.879l4,0c0.552,0 1,-0.448 1,-1c0,-0.552 -0.448,-1 -1,-1l-4,0c-0.265,-0 -0.52,-0.105 -0.707,-0.293c-0.188,-0.187 -0.293,-0.442 -0.293,-0.707l0,-3l54,0l0,3c0,0.265 -0.105,0.52 -0.293,0.707c-0.187,0.188 -0.442,0.293 -0.707,0.293l-21.642,-0l-8.715,-0l-13.643,0c-0.552,0 -1,0.448 -1,1c0,0.552 0.448,1 1,1l12.606,0c-0.16,2.682 -0.855,6.147 -3.417,8l-1.689,0c-0.552,0 -1,0.448 -1,1c0,0.552 0.448,1 1,1l21,0c0.552,0 1,-0.448 1,-1c0,-0.552 -0.448,-1 -1,-1l-1.689,0c-2.562,-1.854 -3.257,-5.318 -3.417,-8l20.606,0c0.796,-0 1.559,-0.316 2.121,-0.879c0.563,-0.562 0.879,-1.325 0.879,-2.121c0,-6.028 0,-23.972 0,-30c0,-0.796 -0.316,-1.559 -0.879,-2.121c-0.562,-0.563 -1.325,-0.879 -2.121,-0.879l-10,0c-0.552,0 -1,0.448 -1,1c0,0.552 0.448,1 1,1l10,0c0.265,0 0.52,0.105 0.707,0.293c0.188,0.187 0.293,0.442 0.293,0.707l0,25Zm-23.606,8l-6.788,0c-0.155,2.531 -0.785,5.68 -2.585,8l11.958,0c-1.8,-2.32 -2.43,-5.47 -2.585,-8Zm-7.394,-22l-0,10c0,0.552 0.448,1 1,1l6,0c0.552,0 1,-0.448 1,-1l-0,-10c-0,-0 2,-0 2,-0c0.382,0 0.73,-0.217 0.898,-0.56c0.168,-0.343 0.126,-0.751 -0.108,-1.053l-6,-7.737c-0.189,-0.244 -0.481,-0.387 -0.79,-0.387c-0.309,0 -0.601,0.143 -0.79,0.387l-6,7.737c-0.234,0.302 -0.276,0.71 -0.108,1.053c0.168,0.343 0.516,0.56 0.898,0.56l2,-0Zm-21,7l-0,2c0,0.552 0.448,1 1,1c0.552,-0 1,-0.448 1,-1l-0,-2c0,-0.552 -0.448,-1 -1,-1c-0.552,-0 -1,0.448 -1,1Zm23,-8c0,-0.552 -0.448,-1 -1,-1l-0.959,-0c-0,-0 3.959,-5.105 3.959,-5.105c0,-0 3.959,5.105 3.959,5.105c0,-0 -0.959,-0 -0.959,-0c-0.552,0 -1,0.448 -1,1l-0,10c-0,0 -4,0 -4,0c-0,0 -0,-10 -0,-10Zm6.364,-25l-14.364,-0c-1.657,0 -3,1.343 -3,3l0,25c0,1.657 1.343,3 3,3l4,-0c0.552,-0 1,-0.448 1,-1c-0,-0.552 -0.448,-1 -1,-1l-4,0c-0.552,-0 -1,-0.448 -1,-1c0,-0 0,-25 0,-25c0,-0.552 0.448,-1 1,-1l13,0l0,7c0,0.552 0.448,1 1,1l7,-0l0,18c0,0.552 -0.448,1 -1,1c-0,-0 -4,0 -4,0c-0.552,-0 -1,0.448 -1,1c-0,0.552 0.448,1 1,1l4,-0c1.657,-0 3,-1.343 3,-3c0,-5.423 0,-20 0,-20c0,-0.28 -0.118,-0.548 -0.324,-0.737l-7.637,-7c-0.184,-0.169 -0.425,-0.263 -0.675,-0.263Zm-27.364,30l-0,-13c0,-0.552 -0.448,-1 -1,-1c-0.552,-0 -1,0.448 -1,1l-0,13c0,0.552 0.448,1 1,1c0.552,-0 1,-0.448 1,-1Zm7,-18l-10,0c-0.796,0 -1.559,0.316 -2.121,0.879c-0.563,0.562 -0.879,1.325 -0.879,2.121c0,2.509 0,8.581 0,13.5c0,0.552 0.448,1 1,1c0.552,0 1,-0.448 1,-1l0,-13.5c-0,-0.265 0.105,-0.52 0.293,-0.707c0.187,-0.188 0.442,-0.293 0.707,-0.293c0,0 10,0 10,0c0.552,0 1,-0.448 1,-1c0,-0.552 -0.448,-1 -1,-1Zm10.947,3.132l10.106,-0c0.552,-0 1,-0.449 1,-1c-0,-0.552 -0.448,-1 -1,-1l-10.106,-0c-0.552,-0 -1,0.448 -1,1c0,0.551 0.448,1 1,1Zm10.053,-7.132l5.52,-0l-5.52,-5.06l-0,5.06Z"/> </g> </g>
</svg>